<svg xmlns="http://www.w3.org/2000/svg" viewBox="0 0 512 512"><path fill="#afb9d2" d="M158.897 392.828l8.827-61.794H256l8.828 61.794z"/><path fill="#959cb3" d="M259.784 357.517L256 331.034h-88.276l-3.784 26.483z"/><path d="M406.069 339.862H17.655C7.904 339.862 0 331.958 0 322.207v-256c0-9.751 7.904-17.655 17.655-17.655h388.414c9.751 0 17.655 7.904 17.655 17.655v256c0 9.751-7.904 17.655-17.655 17.655z" fill="#464655"/><path d="M406.069 339.862H17.655C7.904 339.862 0 331.958 0 322.207v-35.31h423.724v35.31c0 9.751-7.904 17.655-17.655 17.655z" fill="#c7cfe2"/><path fill="#c3e678" d="M22.069 70.621h379.586v194.207H22.069z"/><circle cx="211.862" cy="313.379" r="13.241" fill="#959cb3"/><path d="M264.828 401.655H158.897a8.829 8.829 0 0 1 0-17.656h105.931a8.829 8.829 0 0 1 0 17.656z" fill="#c7cfe2"/><path d="M494.345 463.448H379.586c-9.751 0-17.655-7.904-17.655-17.655V198.621c0-9.751 7.904-17.655 17.655-17.655h114.759c9.751 0 17.655 7.904 17.655 17.655v247.172c0 9.751-7.904 17.655-17.655 17.655z" fill="#707384"/><path fill="#ffe182" d="M375.172 216.276h123.586v211.862H375.172z"/><g fill="#464655"><path d="M454.621 203.034h-26.483a4.414 4.414 0 1 1 0-8.828h26.483a4.415 4.415 0 0 1 0 8.828zm-44.138 0a4.414 4.414 0 1 1 0-8.828 4.414 4.414 0 0 1 0 8.828z"/><circle cx="436.966" cy="445.793" r="8.828"/></g></svg>