<svg xmlns="http://www.w3.org/2000/svg" viewBox="0 0 512 512"><path d="M185.379 304.552H0v26.483a8.829 8.829 0 0 0 8.828 8.828H185.38v-35.311zm-17.655 26.482a8.829 8.829 0 1 1 .001-17.657 8.829 8.829 0 0 1-.001 17.657z" fill="#bec8dc"/><path d="M185.379 286.897H17.655V128h300.138v105.931h-44.138a8.829 8.829 0 0 0-8.828 8.828v8.828h220.69v114.759H361.931V384h141.242V242.759a8.829 8.829 0 0 0-8.828-8.828H335.448V119.172a8.829 8.829 0 0 0-8.828-8.828H8.828A8.829 8.829 0 0 0 0 119.172v185.379h185.379v-17.654z" fill="#464655"/><path d="M273.655 233.931h44.138V128H17.655v158.897h167.724v-26.483a8.829 8.829 0 0 1 8.828-8.828h70.621v-8.828a8.828 8.828 0 0 1 8.827-8.827z" fill="#ffdc69"/><path fill="#afbbd0" d="M185.379 357.517h-65.324L114.759 384h70.62z"/><path fill="#96a5b9" d="M185.379 339.862h-61.793l-3.531 17.655h65.324z"/><path d="M185.379 392.828V384h-70.621a8.829 8.829 0 0 0 0 17.656h79.448a8.83 8.83 0 0 1-8.827-8.828z" fill="#bec8dc"/><circle cx="167.724" cy="322.207" r="8.828" fill="#96a5b9"/><path fill="#464655" d="M300.138 366.345h8.828V384h-8.828z"/><path d="M485.517 251.586H291.31a8.829 8.829 0 0 1 8.828 8.828v105.931h8.828v-61.793a8.829 8.829 0 0 1 8.828-8.828h35.31a8.829 8.829 0 0 1 8.828 8.828v61.793h123.586V251.586z" fill="#ff6469"/><path d="M503.172 384h-88.276a8.829 8.829 0 0 1-8.828 8.828H361.93a8.829 8.829 0 0 1-8.828 8.828h150.069a8.829 8.829 0 0 0 .001-17.656zm-194.206 8.828V384h-8.828v8.828a8.829 8.829 0 0 1-8.828 8.828h26.483a8.829 8.829 0 0 1-8.827-8.828z" fill="#afbbd0"/><path d="M361.931 392.828h44.138a8.829 8.829 0 0 0 8.828-8.828h-52.966v8.828z" fill="#96a5b9"/><path d="M300.138 392.828V260.414a8.829 8.829 0 0 0-8.828-8.828h-97.104a8.829 8.829 0 0 0-8.828 8.828v132.414a8.829 8.829 0 0 0 8.828 8.828h97.104a8.83 8.83 0 0 0 8.828-8.828zm-57.379 4.413a4.414 4.414 0 1 1 0-8.827 4.414 4.414 0 0 1 0 8.827zM264.828 384h-70.621V269.241h97.103V384h-26.482z" fill="#707384"/><path fill="#b4e173" d="M291.31 269.241h-97.103V384h97.103z"/><circle cx="242.759" cy="392.828" r="4.414" fill="#464655"/><path d="M361.931 392.828v-88.276a8.829 8.829 0 0 0-8.828-8.828h-35.31a8.829 8.829 0 0 0-8.828 8.828v88.276a8.829 8.829 0 0 0 8.828 8.828h35.31a8.83 8.83 0 0 0 8.828-8.828zm-26.483 4.413a4.414 4.414 0 1 1 0-8.827 4.414 4.414 0 0 1 0 8.827zM317.793 384v-70.621h35.31V384h-35.31z" fill="#707384"/><path fill="#a0dcf0" d="M317.793 313.379h35.31V384h-35.31z"/><circle cx="335.448" cy="392.828" r="4.414" fill="#464655"/></svg>