<svg id="Capa_1" xmlns="http://www.w3.org/2000/svg" viewBox="0 0 841.9 595.3"><style>.st0{fill:#2c3e50}.st1{fill:#202f3b}.st2{fill:#fff}</style><path class="st0" d="M0 0h841.9v595.3H0z"/><path class="st1" d="M841.9 595.3V280.5c-33.4 34.3-68 98.1-98.3 71.6-36-31.5-66-15-108 16.5s-84-31.5-145.5-87-93 3-114 16S257.6 397 221.6 385s-90-75-118.5-87.4C74.6 285.2 0 385.1 0 385.1v210.2h841.9z"/><circle class="st2" cx="306" cy="71.9" r="2.8"/><circle class="st2" cx="442.8" cy="180.7" r="2.8"/><circle class="st2" cx="350.2" cy="76.8" r="2.8"/><circle class="st2" cx="393.8" cy="98.7" r="2.8"/><circle class="st2" cx="436.8" cy="131.7" r="2.8"/><circle class="st2" cx="517.8" cy="202.7" r="2.8"/><circle class="st2" cx="535.8" cy="140.7" r="2.8"/></svg>