<svg id="Layer_1" xmlns="http://www.w3.org/2000/svg" viewBox="-275 367.7 59.4 59.3"><style>.st0{fill:#5b5b5b}.st1{fill:none}.st2{fill:url(#SVGID_1_)}.st3{fill:url(#SVGID_2_)}.st4{opacity:.43;fill:url(#SVGID_3_);enable-background:new}.st5{fill:url(#SVGID_4_)}.st6{fill:url(#SVGID_5_)}.st7{fill:url(#SVGID_6_)}.st8{fill:url(#SVGID_7_)}.st9{fill:url(#SVGID_8_)}.st10{fill:url(#SVGID_9_)}.st11{opacity:.25;fill:url(#SVGID_10_);enable-background:new}.st12{fill:url(#SVGID_11_)}.st13{opacity:.17;fill:url(#SVGID_12_);enable-background:new}.st14{fill:#515151}.st15{font-family:&amp;apos;Roboto-Bold&amp;apos;}.st16{font-size:8.4694px}</style><path class="st0" d="M-245.3 426.1c-7.9 0-15.5-1.4-22.3-3.8-1.2-.5-2.1-1.5-2.6-2.7-2.4-6.7-3.8-14.4-3.8-22.1s1.3-15.4 3.8-22.1c.5-1.5 1.4-2.4 2.6-2.9 6.8-2.5 14.4-3.8 22.3-3.8s15.5 1.4 22.3 3.8c1.3.5 2.2 1.5 2.6 2.7 2.4 6.7 3.8 14.4 3.8 22.1 0 7.8-1.3 15.4-3.8 22.1-.5 1.3-1.5 2.3-2.6 2.7-6.8 2.5-14.4 4-22.3 4zm0-54.5c-7.5 0-14.8 1.3-21.3 3.6-.4.2-.8.5-1 1.1-2.2 6.4-3.5 13.7-3.5 21.2s1.3 14.8 3.6 21.2c.2.5.5.9 1 1.1 6.4 2.3 13.8 3.6 21.3 3.6s14.8-1.3 21.3-3.6c.4-.2.8-.5 1-1.1 2.3-6.4 3.6-13.8 3.6-21.2 0-7.4-1.3-14.8-3.6-21.2-.2-.5-.5-.9-1-1.1-6.6-2.6-13.9-3.6-21.4-3.6z"/><path class="st1" d="M-260.7 394.9h33.6v28.2h-33.6z"/><path class="st1" d="M-256.4 413.3h22.5v8.5h-22.5z"/><linearGradient id="SVGID_1_" gradientUnits="userSpaceOnUse" x1="-288.358" y1="231.06" x2="-268.467" y2="231.06" gradientTransform="scale(1 -1) rotate(18.422 1663.278 14.249)"><stop offset="0" stop-color="#262262"/><stop offset=".5" stop-color="#662d91"/><stop offset=".673" stop-color="#642c8e"/><stop offset=".8" stop-color="#5c2a85"/><stop offset=".911" stop-color="#4e2675"/><stop offset="1" stop-color="#3e2262"/></linearGradient><path class="st2" d="M-255.6 392.5s2.1 1.1 12.3-1.3c2.3-.5 3.8-.9 5.2-.6 0 0 1.3 1.3-1.6 2.5-2.8 1.2-6.8 4.1-6.8 4.1s-5.7 1.5-6.2 1.4-2.9.2-4.2-1.8c-1.2-2.1 1.3-4.3 1.3-4.3z"/><linearGradient id="SVGID_2_" gradientUnits="userSpaceOnUse" x1="-288.358" y1="231.06" x2="-268.467" y2="231.06" gradientTransform="scale(1 -1) rotate(18.422 1663.278 14.249)"><stop offset="0" stop-color="#17224d"/><stop offset=".114" stop-color="#32235c" stop-opacity=".886"/><stop offset=".283" stop-color="#55256e" stop-opacity=".717"/><stop offset=".456" stop-color="#70267d" stop-opacity=".544"/><stop offset=".632" stop-color="#832687" stop-opacity=".368"/><stop offset=".811" stop-color="#8e278d" stop-opacity=".189"/><stop offset="1" stop-color="#92278f" stop-opacity="0"/></linearGradient><path class="st3" d="M-255.6 392.5s2.1 1.1 12.3-1.3c2.3-.5 3.8-.9 5.2-.6 0 0 1.3 1.3-1.6 2.5-2.8 1.2-6.8 4.1-6.8 4.1s-5.7 1.5-6.2 1.4-2.9.2-4.2-1.8c-1.2-2.1 1.3-4.3 1.3-4.3z"/><linearGradient id="SVGID_3_" gradientUnits="userSpaceOnUse" x1="-288.356" y1="230.76" x2="-271.851" y2="230.76" gradientTransform="scale(1 -1) rotate(18.422 1663.278 14.249)"><stop offset="0" stop-color="#92278f" stop-opacity="0"/><stop offset=".121" stop-color="#972d90" stop-opacity=".121"/><stop offset=".429" stop-color="#9f3591" stop-opacity=".429"/><stop offset="1" stop-color="#a13791"/></linearGradient><path class="st4" d="M-249.3 395.7c-6.1 1.5-5.9.1-5.9.1s-.7-1.1-1.3-2.3c-.5.8-1 2.1-.3 3.2 1.3 2.1 3.6 1.8 4.2 1.8s6.2-1.4 6.2-1.4 3.2-2.3 5.8-3.7c-2.1.6-5.2 1.4-8.7 2.3z"/><linearGradient id="SVGID_4_" gradientUnits="userSpaceOnUse" x1="-290.145" y1="237.545" x2="-263.637" y2="237.545" gradientTransform="scale(1 -1) rotate(18.422 1663.278 14.249)"><stop offset="0" stop-color="#1c75bc"/><stop offset=".5" stop-color="#00aeef"/><stop offset="1" stop-color="#4fd5df"/></linearGradient><path class="st5" d="M-238.8 373.7s4.9 5.5-4.8 12.8c-10.4 7.7-13.1 12.3-8.8 12.2 0 0-6 1.5-6.9-4.3-.6-3.4 1.7-5.4 4.5-7.7-.2-.1 9.5-7 16-13z"/><linearGradient id="SVGID_5_" gradientUnits="userSpaceOnUse" x1="-280.441" y1="210.402" x2="-280.441" y2="220.986" gradientTransform="scale(1 -1) rotate(18.422 1663.278 14.249)"><stop offset="0" stop-color="#da1c5c"/><stop offset=".5" stop-color="#9e1f63"/><stop offset="1" stop-color="#9e1f63"/></linearGradient><path class="st6" d="M-243.9 403.1s-3.3 5.6 2.8 10.1c.1 0 0 .1-.1.1-1-.3-2.5-1-3.8-1.7-3.8-2.1-.8-6.4 1.1-8.5z"/><linearGradient id="SVGID_6_" gradientUnits="userSpaceOnUse" x1="-280.384" y1="210.402" x2="-280.384" y2="220.986" gradientTransform="scale(1 -1) rotate(18.422 1663.278 14.249)"><stop offset="0" stop-color="#da1c5c"/><stop offset=".995" stop-color="#351840"/></linearGradient><path class="st7" d="M-243.9 403.1s-3.3 5.6 2.8 10.1c.1 0 0 .1-.1.1-1-.3-3.2-1.2-4.2-2.1-3.2-2.9-.4-6 1.5-8.1z"/><linearGradient id="SVGID_7_" gradientUnits="userSpaceOnUse" x1="-284.716" y1="222.207" x2="-266.04" y2="222.207" gradientTransform="scale(1 -1) rotate(18.422 1663.278 14.249)"><stop offset="0" stop-color="#ee2a7b"/><stop offset=".5" stop-color="#da1c5c"/><stop offset="1" stop-color="#9e1f63"/></linearGradient><path class="st8" d="M-234.5 393.5c-.2-2.6-3.8-3-3.8-3 2.2 1.2-4.5 2.6-9.4 8.1-3.5 3.9-2.1 7.8-2.1 7.8 1.1 3.6 4.8 5.2 4.8 5.2-5.9-8.6 10.9-13.2 10.5-18.1z"/><linearGradient id="SVGID_8_" gradientUnits="userSpaceOnUse" x1="-284.716" y1="222.207" x2="-266.01" y2="222.207" gradientTransform="scale(1 -1) rotate(18.422 1663.278 14.249)"><stop offset="0" stop-color="#ee2a7b" stop-opacity="0"/><stop offset=".189" stop-color="#f13178" stop-opacity=".378"/><stop offset=".5" stop-color="#f23477"/><stop offset=".606" stop-color="#ee3376" stop-opacity=".788"/><stop offset=".717" stop-color="#e13073" stop-opacity=".566"/><stop offset=".83" stop-color="#cc2b6e" stop-opacity=".34"/><stop offset=".944" stop-color="#af2367" stop-opacity=".112"/><stop offset="1" stop-color="#9e1f63" stop-opacity="0"/></linearGradient><path class="st9" d="M-234.5 393.5c-.1-2.7-3.8-3-3.8-3 2.2 1.2-4.5 2.6-9.4 8.1-3.5 3.9-2.1 7.8-2.1 7.8 1.1 3.6 4.8 5.2 4.8 5.2-5.9-8.6 10.4-13 10.5-18.1z"/><linearGradient id="SVGID_9_" gradientUnits="userSpaceOnUse" x1="-290.145" y1="237.624" x2="-263.964" y2="237.624" gradientTransform="scale(1 -1) rotate(18.422 1663.278 14.249)"><stop offset="0" stop-color="#d9e8bc"/><stop offset="1" stop-color="#4fd5df"/></linearGradient><path class="st10" d="M-249.2 385.8c11.2-8 10.4-12.1 10.4-12.1-5.8 5.5-16.2 12.9-16.2 12.9-2.9 2.4-5 4.3-4.5 7.7.9 5.8 6.9 4.3 6.9 4.3-6.9 1.3-8.2-4.6 3.4-12.8z"/><linearGradient id="SVGID_10_" gradientUnits="userSpaceOnUse" x1="-283.108" y1="226.213" x2="-269.206" y2="250.292" gradientTransform="scale(1 -1) rotate(18.422 1663.278 14.249)"><stop offset="0" stop-color="#1c75bc" stop-opacity="0"/><stop offset=".026" stop-color="#2e80c0" stop-opacity=".052"/><stop offset=".124" stop-color="#6da6ce" stop-opacity=".248"/><stop offset=".217" stop-color="#a1c6da" stop-opacity=".435"/><stop offset=".304" stop-color="#cadfe3" stop-opacity=".609"/><stop offset=".383" stop-color="#e7f0ea" stop-opacity=".766"/><stop offset=".451" stop-color="#f9fbee" stop-opacity=".902"/><stop offset=".5" stop-color="#ffffef"/><stop offset=".605" stop-color="#fcfeef" stop-opacity=".791"/><stop offset=".681" stop-color="#f3fcee" stop-opacity=".638"/><stop offset=".749" stop-color="#e3f8ec" stop-opacity=".503"/><stop offset=".811" stop-color="#ccf3ea" stop-opacity=".379"/><stop offset=".869" stop-color="#afece8" stop-opacity=".261"/><stop offset=".925" stop-color="#8ce3e5" stop-opacity=".149"/><stop offset=".978" stop-color="#62dae1" stop-opacity=".043"/><stop offset="1" stop-color="#4fd5df" stop-opacity="0"/></linearGradient><path class="st11" d="M-238.8 373.7s.9 4-10.4 12.1c-8.9 6.3-10.2 11.3-7.2 12.7 1 .4 2 .4 2.8.4.4 0 .7-.1 1.1-.2-4.3.1-1.6-4.4 8.8-12.2 9.8-7.3 4.9-12.8 4.9-12.8z"/><linearGradient id="SVGID_11_" gradientUnits="userSpaceOnUse" x1="-284.702" y1="222.175" x2="-266.99" y2="222.175" gradientTransform="scale(1 -1) rotate(18.422 1663.278 14.249)"><stop offset="0" stop-color="#ee2a7b" stop-opacity="0"/><stop offset=".186" stop-color="#d92775" stop-opacity=".186"/><stop offset=".524" stop-color="#b9236b" stop-opacity=".524"/><stop offset=".807" stop-color="#a52065" stop-opacity=".807"/><stop offset="1" stop-color="#9e1f63"/></linearGradient><path class="st12" d="M-237.1 394.1c2-1.5 1-2.7.9-2.8-1-.7-2-.8-2-.8 2.2 1.2-4.5 2.6-9.4 8.1-3.5 3.9-2.1 7.8-2.1 7.8 1.1 3.6 4.8 5.2 4.8 5.2-11.1-6.4 5.6-15.9 7.8-17.5z"/><linearGradient id="SVGID_12_" gradientUnits="userSpaceOnUse" x1="-283.99" y1="222.207" x2="-266.011" y2="222.207" gradientTransform="scale(1 -1) rotate(18.422 1663.278 14.249)"><stop offset="0" stop-color="#ee2a7b" stop-opacity="0"/><stop offset=".048" stop-color="#f25797" stop-opacity=".095"/><stop offset=".102" stop-color="#f583b2" stop-opacity=".204"/><stop offset=".159" stop-color="#f8a9ca" stop-opacity=".318"/><stop offset=".218" stop-color="#fbc9dd" stop-opacity=".436"/><stop offset=".279" stop-color="#fde1ec" stop-opacity=".558"/><stop offset=".344" stop-color="#fef2f7" stop-opacity=".687"/><stop offset=".414" stop-color="#fffcfd" stop-opacity=".828"/><stop offset=".5" stop-color="#fff"/><stop offset=".564" stop-color="#fdfbfc" stop-opacity=".873"/><stop offset=".63" stop-color="#f8eef3" stop-opacity=".739"/><stop offset=".699" stop-color="#efd9e5" stop-opacity=".603"/><stop offset=".768" stop-color="#e2bcd0" stop-opacity=".465"/><stop offset=".837" stop-color="#d296b6" stop-opacity=".325"/><stop offset=".908" stop-color="#be6896" stop-opacity=".184"/><stop offset=".978" stop-color="#a63270" stop-opacity=".045"/><stop offset="1" stop-color="#9e1f63" stop-opacity="0"/></linearGradient><path class="st13" d="M-238.3 390.5s1 .1 2 .8c.1.1 1.1 1.3-.9 2.8-2.2 1.6-19.1 10.7-7.8 17.5-6-8.6 10.4-13.1 10.5-18.1-.1-2.7-3.8-3-3.8-3z"/><text transform="matrix(.9219 0 0 1 -254.986 420.356)" class="st14 st15 st16">MOMI</text></svg>