<svg xmlns="http://www.w3.org/2000/svg" viewBox="0 0 512 512"><path d="M494.345 39.724H17.655C7.904 39.724 0 47.629 0 57.379v282.483h512V57.379c0-9.75-7.904-17.655-17.655-17.655zm-8.828 79.448v194.207H26.483V66.207h459.034v52.965z" fill="#464655"/><path d="M26.483 313.379h459.034V119.172H26.483v194.207zM388.414 163.31v-8.828a8.829 8.829 0 0 1 8.828-8.828h52.966a8.829 8.829 0 0 1 8.828 8.828v123.587a8.829 8.829 0 0 1-8.828 8.828h-52.966a8.829 8.829 0 0 1-8.828-8.828V163.31zm-97.104 0v-8.828a8.829 8.829 0 0 1 8.828-8.828h52.966a8.829 8.829 0 0 1 8.828 8.828v123.587a8.829 8.829 0 0 1-8.828 8.828h-52.966a8.829 8.829 0 0 1-8.828-8.828V163.31zm-97.103 0v-8.828a8.829 8.829 0 0 1 8.828-8.828H256a8.829 8.829 0 0 1 8.828 8.828v123.587a8.829 8.829 0 0 1-8.828 8.828h-52.966a8.829 8.829 0 0 1-8.828-8.828V163.31zm-141.241 0v-8.828a8.829 8.829 0 0 1 8.828-8.828h97.103a8.829 8.829 0 0 1 8.828 8.828v123.587a8.829 8.829 0 0 1-8.828 8.828H61.793a8.829 8.829 0 0 1-8.828-8.828V163.31z" fill="#fff"/><path d="M0 375.172c0 9.75 7.904 17.655 17.655 17.655h476.689c9.751 0 17.655-7.905 17.655-17.655v-35.31H0v35.31zm256-22.069c7.313 0 13.241 5.929 13.241 13.241s-5.929 13.241-13.241 13.241c-7.313 0-13.241-5.929-13.241-13.241s5.928-13.241 13.241-13.241z" fill="#bec8dc"/><path fill="#afbbd0" d="M177.655 454.621h156.69l-5.517-44.138H183.172z"/><path d="M176.552 454.621a8.829 8.829 0 0 0 0 17.656h158.897a8.829 8.829 0 0 0 0-17.656H176.552z" fill="#bec8dc"/><path fill="#96a5b9" d="M183.172 410.483h145.656l-2.207-17.655H185.379z"/><path d="M26.483 119.172h459.034V66.207H26.483v52.965zm397.241-35.31h35.31a8.829 8.829 0 0 1 0 17.656h-35.31a8.829 8.829 0 0 1 0-17.656zm-70.621 0h35.31a8.829 8.829 0 0 1 0 17.656h-35.31a8.829 8.829 0 0 1 0-17.656zm-70.62 0h35.31a8.829 8.829 0 0 1 0 17.656h-35.31a8.829 8.829 0 0 1 0-17.656zm-70.621 0h35.31a8.829 8.829 0 0 1 0 17.656h-35.31a8.829 8.829 0 0 1 0-17.656zm-70.621 0h35.31a8.829 8.829 0 0 1 0 17.656h-35.31a8.829 8.829 0 0 1 0-17.656zm-88.275 0h52.966a8.829 8.829 0 0 1 0 17.656H52.966a8.829 8.829 0 0 1 0-17.656z" fill="#ff6469"/><path d="M52.966 101.517h52.966a8.829 8.829 0 0 0 0-17.656H52.966a8.829 8.829 0 0 0 0 17.656z" fill="#ffdc69"/><path d="M141.241 101.517h35.31a8.829 8.829 0 0 0 0-17.656h-35.31a8.829 8.829 0 0 0 0 17.656zm70.621 0h35.31a8.829 8.829 0 0 0 0-17.656h-35.31a8.829 8.829 0 0 0 0 17.656zm70.621 0h35.31a8.829 8.829 0 0 0 0-17.656h-35.31a8.829 8.829 0 0 0 0 17.656zm70.62 0h35.31a8.829 8.829 0 0 0 0-17.656h-35.31a8.829 8.829 0 0 0 0 17.656zm70.621 0h35.31a8.829 8.829 0 0 0 0-17.656h-35.31a8.829 8.829 0 0 0 0 17.656z" fill="#d2555f"/><path d="M61.793 286.897h97.103a8.829 8.829 0 0 0 8.828-8.828V163.31a8.829 8.829 0 0 1-8.828 8.828H61.793a8.829 8.829 0 0 1-8.828-8.828v114.759a8.83 8.83 0 0 0 8.828 8.828zm141.241 0H256a8.829 8.829 0 0 0 8.828-8.828V163.31a8.829 8.829 0 0 1-8.828 8.828h-52.966a8.829 8.829 0 0 1-8.828-8.828v114.759a8.83 8.83 0 0 0 8.828 8.828zm97.104 0h52.966a8.829 8.829 0 0 0 8.828-8.828V163.31a8.829 8.829 0 0 1-8.828 8.828h-52.966a8.829 8.829 0 0 1-8.828-8.828v114.759a8.829 8.829 0 0 0 8.828 8.828zm97.103 0h52.966a8.829 8.829 0 0 0 8.828-8.828V163.31a8.829 8.829 0 0 1-8.828 8.828h-52.966a8.829 8.829 0 0 1-8.828-8.828v114.759a8.83 8.83 0 0 0 8.828 8.828z" fill="#dee3ed"/><path d="M61.793 172.138h97.103a8.829 8.829 0 0 0 8.828-8.828v-8.828a8.829 8.829 0 0 0-8.828-8.828H61.793a8.829 8.829 0 0 0-8.828 8.828v8.828a8.83 8.83 0 0 0 8.828 8.828z" fill="#ffdc69"/><path d="M203.034 172.138H256a8.829 8.829 0 0 0 8.828-8.828v-8.828a8.829 8.829 0 0 0-8.828-8.828h-52.966a8.829 8.829 0 0 0-8.828 8.828v8.828a8.83 8.83 0 0 0 8.828 8.828z" fill="#b4e173"/><path d="M300.138 172.138h52.966a8.829 8.829 0 0 0 8.828-8.828v-8.828a8.829 8.829 0 0 0-8.828-8.828h-52.966a8.829 8.829 0 0 0-8.828 8.828v8.828a8.829 8.829 0 0 0 8.828 8.828z" fill="#ff969b"/><path d="M397.241 172.138h52.966a8.829 8.829 0 0 0 8.828-8.828v-8.828a8.829 8.829 0 0 0-8.828-8.828h-52.966a8.829 8.829 0 0 0-8.828 8.828v8.828a8.83 8.83 0 0 0 8.828 8.828z" fill="#a0dcf0"/><circle cx="256" cy="366.345" r="13.241" fill="#96a5b9"/></svg>