<svg id="Layer_1" xmlns="http://www.w3.org/2000/svg" xmlns:xlink="http://www.w3.org/1999/xlink" viewBox="334 -4 1280 800"><style>.st0{display:none;opacity:.8;fill:#c69c6d;enable-background:new}.st1{fill:#e7e7e9}.st2{fill:#fff}.st3{fill:#343434}.st4{fill:#ffce6a}.st5{fill:#404042}.st6{fill:#f27441}.st7{fill:#1ab99b}.st8{fill:#f59938}.st9{fill:#c1272d}.st10{fill:#b3b3b3}.st11{fill:#29abe2}.st12{fill:#f15a24}.st13{fill:#00a99d}.st14{fill:#d4145a}.st15{fill:#00f}.st16{fill:#1b1464}.st17{fill:#ed1e79}.st18{fill:#e6e6e6}.st19{fill:#ccc}.st20{fill:#666}.st21{fill:#d1d3d4}.st22{fill:#e7d4c8}.st23{fill:red}.st24{fill:#f2f2f2}.st25{fill:#999}.st26{font-family:&amp;apos;MyriadPro-Regular&amp;apos;}.st27{font-size:37.6322px}.st28{opacity:.8;fill:#444;enable-background:new}.st29{fill:#333;stroke:#000;stroke-miterlimit:10}.st30{fill:#666}.st30,.st31{stroke:#000;stroke-miterlimit:10}.st32{fill:url(#SVGID_1_)}.st33{fill:#b7b9bc}.st34{fill:#faffff}.st35{fill:#fbb21e}.st36{fill:#1ebed1}.st37{fill:#bdb9be}.st38{fill:none}.st39{font-family:&amp;apos;Chalkduster&amp;apos;}.st40{font-size:12px}</style><path class="st0" d="M668-7h1280v799H668z"/><image width="740" height="371" xlink:href="A800D26B4E8107BE.png" transform="translate(564.383 8.4)" overflow="visible" opacity=".3"/><path class="st1" d="M684 283.4c7.1.5 58 4.4 122.7 9.2l193 14.4c68.1 5.1 120 8.9 120 8.9s17.9 5.7 30.9-21.1l-489.4-39c.1-.1 1.7 25.9 22.8 27.6zm220.3-3.1c6.1 0 11 3 11 6.6s-4.9 6.6-11 6.6-11-3-11-6.6 5-6.6 11-6.6z"/><path class="st2" d="M582.4 22.4l-3.2 17.1 705.6 78 3.3-17.9z"/><path class="st3" d="M661.3 255.7l489.4 39 134.1-177.2-705.7-78 82.2 216.2zm473.1 26.9L681.6 246 619 56.5l622.7 68.3-107.3 157.8z"/><path class="st2" d="M806.8 292.5l-4 34.7s-2.4 22 21.1 24.4S967 362.2 967 362.2s26.8 7.3 30.9-21.1c4.1-28.5 3.4-34 3.4-34l-1.4-.1-193.1-14.5z"/><path class="st4" d="M1050.5 247.3l8.1.7 2.1-4.3-8.1-.6zm11.7 1.2l7.9.5 2.2-3.8-8.4-.8zm-20-12.7l-1.5 4.4 8.4.6 1.8-4.3zm-3.9 10.5l8.3.6 1.8-4.3-8.6-.7zm22.7-4.4l2.2-4.3-8.2-.6-2.1 4.2zm11.5 1l2.3-3.8-8.5-.8-1.7 4.1zm12 1.1l2.1-4.1-8-.8-2 4.2zm-19-12.3l-7.9-.6-2 4.2 8.1.6zm12 1.3l-8-.4-2 3.7 8.1.7zm-24.1-2.2l-8.5-.6-1.8 4 8.7.7z"/><path class="st4" d="M681.6 246l452.8 36.6 107.3-157.7L619 56.5 681.6 246zM666.9 95.9l145.5 15.5v4.9l-144.7-15.7-.8-4.7zM814.4 125l-67-7v-4.6l67 6.5v5.1zm1 14.9v4.9l-64.5-6.7-.6-4.8 65.1 6.6zm-141.4-18l-1.2-4.9 141.6 13.9v4.9L674 121.9zm43.2 26.9l-17.5 8.8s-13.3-6.4-11.4-15.9c0 0 4.4-10.5 26.1-8.1l2.8 15.2zm-29.8 32l29.7 2.7 3.5 16-28.4-2.4-4.8-16.3zm15.9 55.8l-1.2-4.4 152.6 12.4.1 4.9-151.5-12.9zm152.1 3.6l-154.8-13.3-1.3-4.8 156 13.7.1 4.4zm0-9.7l-157.7-13.8-1.3-5.1 159 14.4v4.5zm0-9.3l-160.3-14.6-1.5-5 161.8 14.7v4.9zm.5-9l-123.5-11.1-3.2-16.3 127.6 11.6-.9 15.8zm7.5-28.5c-.6 4.3-7.1 6.9-14.4 5.8-7.4-1-14-5.3-13.4-9.6 0-.1.1-.2.1-.3l-11.7-7.1c-2.8 1.7-7.1 2.4-11.7 1.7-4-.6-7.7-2-10.3-3.9l-9.7 4.1c.4.8.7 1.6.7 2.5.1 3.9-7.2 6.9-14.8 5.8-7.5-1.1-14.4-5.4-13.8-9.7 0-.3.2-.7.3-1l-.3.4-17.2-10.1h.1c-19.2 10.4-41.8-2.8-41.8-2.8l17.5-9.1-2.9-14.9c18 1.8 25.9 9.5 25.9 9.5 9.4 7.4 6.4 12.4 4.1 15.4l16.6 9.7c3-1.9 8.4-2.3 13.8-1.6 3.7.5 6.8 1.5 8.9 2.9l9.7-4.4c-.4-.8-.6-1.7-.5-2.5.6-4.3 8.4-5.6 16-4.6 7.5 1.1 13.2 4.2 12.6 8.4-.1.4-.2.8-.4 1.2l11.1 7.3c2.9-1.8 8.2-2.3 13.4-1.6 7.3 1.1 12.7 4.2 12.1 8.5zm-40-57.6v-15.9l35 3.7v15.7l-35-3.5zm35 8.5v15.7l-33-3.2v-15.9l33 3.4zm54.2 14.6l-7.3-20.3 34.5 11.5-6.1 2.4 74 47.3 52.2-9.1 20.3 16.5 37-6.9-40.9 17.3-23.6-15.7-48.9 8.7-83.5-53.8-7.7 2.1zm212.5 8.6l-2.4 4.9-142.4-15.5 1.8-4.3 143 14.9zm-143-18.3l1.8-4.9 145.7 15.2-2.4 4.6-145.1-14.9zm135 79.8l-5.7 9.1-30.7-2.8 4.9-9.6 31.5 3.3zm-39-.6l-2.8 6.1-27-2.5 2.8-6.2 27 2.6zm-153 6.1l70.9 6.4-2.2 7-70-6.2 1.3-7.2zm-.2-2.5l1.4-7.2 72.1 6.4-2.3 7-71.2-6.2zm72 19l12 1.2-2.3 6.7-12-1.2 2.3-6.7zm.7-3.1l2.4-6.7 12.3 1.2-2.1 7-12.6-1.5zm3.1-8.9l2.3-7 12.7 1-2 6.7-13-.7zm-77.7 5.3l69.3 6.4-2.2 7-68.4-6.2 1.3-7.2zm210.2 3.6l-22.8-2-11.5 20.5 2.3 1.4c6.7.6 11.7 3.8 11.7 7.7 0 4.3-6.3 7.8-14.2 7.8-7.3 0-13.3-3.1-14.1-7l-25.8-2.5c-2 2.3-6.2 3.9-11.2 3.9-6.8 0-12.3-3-12.3-6.8s5.5-6.8 12.3-6.8c5.6 0 10.4 2.1 11.9 4.9l27.5 2.1c.9-.7 2-1.4 3.3-1.9l-6.5-3.9-55.5-5.1 8.9-22.2 5.5-3.7 93.1 9.3-2.6 4.3zm58-91.1l-12.5 20-46.9-4.5 11-19.8 48.4 4.3zm-60.6 0L984 131.6l1.5-4.6 147.6 15.5-2.5 4.6zm-30.3-27.5l-3.7 9.3L760 93.1l-1.6-10.5 341.9 37z"/><path class="st4" d="M1074.2 249.4l7.8.7 2.1-4.1-7.9-.8zm15.4-15.4l-8.2-.5-2.1 3.9 8.2.6zm6.9 12.9l-8.4-.6-2.3 4.2 8.5.7zm-3.1 18.8v.2c.5-1.3 2.2-2.2 4.2-2.2s3.7 1 4.2 2.2v-.2c0-1.3-1.9-2.4-4.2-2.4-2.4-.1-4.2 1-4.2 2.4zm8.9-30.4l-9-.5-2.1 3.6 8.9.7zm-5.5 9.8l2.1-4.3-8.4-.6-2.2 4.2z"/><ellipse class="st3" cx="904.3" cy="286.8" rx="11" ry="6.6"/><path class="st5" d="M1096.6 128.9l3.7-9.3-341.9-37 1.6 10.5z"/><path class="st2" d="M983.9 131.5l146.7 15.6 2.4-4.6L985.4 127zm145.7 18.3l-145.7-15.2-1.8 4.9 145.1 14.9zm-149.3-2.7l142.3 15.5 2.5-4.8-143-15z"/><path class="st6" d="M1178.7 167.1l12.5-20-48.5-4.3-10.9 19.8z"/><path class="st2" d="M1052.7 192.1l23.6 15.7 40.8-17.3-37 6.9-20.3-16.5-52.2 9.2-74-47.3 6.1-2.4-34.4-11.5 7.3 20.3 7.6-2.1 83.5 53.7z"/><path class="st7" d="M1111.4 228.5l5.7-9.2-31.5-3.2-4.8 9.5z"/><path class="st8" d="M1048.2 222.3l27.1 2.5 2.8-6.1-27-2.6z"/><path class="st2" d="M1037.3 228.5l-8.9 22.2 55.5 5.1 6.5 3.9c-1.3.5-2.4 1.2-3.3 1.9l-27.5-2.1c-1.5-2.8-6.2-4.9-11.9-4.9-6.8 0-12.3 3-12.3 6.8s5.5 6.8 12.3 6.8c5 0 9.2-1.6 11.2-3.9l25.8 2.5c.7 3.9 6.8 7 14.1 7 7.8 0 14.2-3.5 14.2-7.8 0-3.8-5.1-7-11.7-7.7l-2.3-1.4 11.5-20.5 22.8 2 2.6-4.1-93.1-9.3-5.5 3.5zm10.3 36.2c-2.4 0-4.3-1.3-4.3-2.9 0-1.6 1.9-2.9 4.3-2.9s4.3 1.3 4.3 2.9c0 1.5-1.9 2.9-4.3 2.9zm-1-17.8l-8.3-.6 1.5-4.4 8.6.7-1.8 4.3zm-5.9-6.7l1.5-4.4 8.6.7-1.8 4.3-8.3-.6zm17.9 7.8l-8.1-.7 2.1-4.2 8.1.6-2.1 4.3zm11.5 1l-7.9-.5 1.7-4.1 8.4.8-2.2 3.8zm11.9 1.1l-7.9-.7 2-4.3 7.9.8-2 4.2zm3.8.4l2.2-4.3 8.4.6-2.2 4.3-8.4-.6zm16 15.2v.2c.1.2.1.5.1.7 0 1.6-1.9 2.9-4.3 2.9s-4.3-1.3-4.3-2.9c0-.2.1-.5.1-.7v-.2c0-1.3 1.9-2.4 4.2-2.4 2.3-.1 4.2 1 4.2 2.4zm-8.5-30.9l9 .5-2.2 3.8-8.8-.6 2-3.7zm5.6 6l-2.2 4.3-8.5-.6 2.2-4.3 8.5.6zm-17.5-7.3l8.2.5-2.1 4.1-8.1-.6 2-4zm5.2 6.4l-2.1 4.2-7.9-.7 2-4.3 8 .8zm-17.1-7.3l8 .4-1.9 4.1-8-.7 1.9-3.8zm5.3 6.5l-2.2 3.9-7.9-.5 1.7-4.1 8.4.7zm-17.2-8l7.9.6-1.8 4.2-8.1-.6 2-4.2zm5.6 6.5l-2.1 4.3-8.1-.7 2.1-4.2 8.1.6zm-18.3-7.4l8.5.6-1.6 4.1-8.7-.7 1.8-4z"/><ellipse class="st9" cx="1047.6" cy="261.7" rx="4.3" ry="2.9"/><path class="st9" d="M1097.6 263.6c-2 0-3.7 1-4.2 2.2-.1.2-.1.5-.1.7 0 1.6 1.9 2.9 4.3 2.9s4.3-1.3 4.3-2.9c0-.2-.1-.5-.1-.7-.5-1.2-2.2-2.2-4.2-2.2z"/><path class="st10" d="M998.4 221.5l-72.1-6.4-1.4 7.2 71.2 6.2z"/><path class="st11" d="M993.7 238.2l2.3-7-70.9-6.4-1.4 7.2zm-1.4 2.8l-69.3-6.4-1.3 7.2 68.4 6.2z"/><path class="st12" d="M1015.6 223.3l-12.6-1-2.3 7 12.9.7z"/><path class="st2" d="M1012.4 232.8l-12.3-1.3-2.5 6.7 12.7 1.6z"/><path class="st13" d="M1008.9 242.5l-12-1.2-2.3 6.7 12 1.2z"/><path class="st6" d="M717.2 183.5l-29.8-2.7 4.9 16.3 28.4 2.4z"/><path class="st14" d="M732.4 201.1l123.5 11.1.9-15.9-127.6-11.6z"/><path class="st2" d="M695.1 206.6l160.3 14.6v-4.9l-161.8-14.6zm2.6 10.1l157.7 13.8V226l-158.9-14.4zm2.9 10.2l154.8 13.3v-4.4l-156-13.7zm1.5 5.2l1.2 4.5 151.5 12.9-.1-4.9zM827 168.3c.6-4.3-5-7.4-12.6-8.4-7.5-1.1-15.4.3-16 4.6-.1.8.1 1.7.5 2.5l3 3.3c2.6 1.9 6.4 3.3 10.3 3.9 4.7.7 9-.1 11.7-1.7l2.7-2.8c.2-.5.4-.9.4-1.4zm-46.7.1c-5.3-.8-10.8-.3-13.8 1.6l-1.9 2c-.1.3-.3.6-.3 1-.6 4.3 6.2 8.6 13.8 9.7 7.5 1.1 14.9-1.9 14.8-5.8 0-.9-.3-1.7-.7-2.5l-3-3c-2.1-1.4-5.2-2.4-8.9-3z"/><path class="st15" d="M766.6 170.1l-16.6-9.7c-.8 1-1.6 1.3-1.6 1.3-.4.3-.9.5-1.3.7h-.1l17.2 10 .3-.4 2.1-1.9zm32.3-3.1l-9.7 4.4 3 3 9.7-4.2zm38.9 9.8l-11.1-7.3-2.7 2.8 11.7 7.1c.2-1 1-1.9 2.1-2.6z"/><path class="st16" d="M858.4 113.9l-35-3.7v15.9l35 3.5z"/><path class="st12" d="M858.4 150.3v-15.7l-33-3.4v15.9z"/><path class="st2" d="M750.9 138.1l64.5 6.7v-4.9l-65.1-6.6zm63.5-7.2L672.7 117l1.4 4.9 140.3 13.9zm-67-12.9l67 7v-5l-67-6.5zm65-6.6L666.9 95.9l.8 4.7 144.7 15.7z"/><path class="st11" d="M688.2 141.8c-1.8 9.5 11.4 15.9 11.4 15.9l17.5-8.8-2.9-15.1c-21.6-2.6-26 8-26 8z"/><path class="st17" d="M750 160.2c2.3-2.4 5.2-7.9-4.1-15.3 0 0-7.9-7.6-25.9-9.5l2.9 14.9-17.5 9.1s22.6 13.1 41.8 2.8c.4-.2.9-.5 1.3-.7-.1.1.6-.4 1.5-1.3z"/><path class="st2" d="M851.2 175.3c-5.2-.7-10.5-.3-13.4 1.6-1.1.7-1.9 1.6-2.1 2.7 0 .1-.1.2-.1.3-.6 4.3 6.1 8.6 13.4 9.6 7.4 1 13.8-1.6 14.4-5.8.6-4.3-4.8-7.4-12.2-8.4z"/><image width="102" height="121" xlink:href="A800D26B4E8107B8.png" transform="translate(1169.255 362.395) scale(.9911)" overflow="visible" opacity=".3"/><path class="st18" d="M1210.3 405l-2.8-10.4c-.2-.9.4-1.9 1.4-2.5l-3.8-14c-14.8 4.3-23.8 18.6-20.1 32.2 0 .1.1.3.1.4.1.5.1 1 .3 1.5l12.5 45.9c1.6 5.7 7.9 8.8 14.3 7l16.4-4.5-14.8-54.6c-1.7.7-3.2.1-3.5-1z"/><path class="st2" d="M1253.8 443.1l-12.5-45.9c-.1-.5-.3-1-.5-1.5 0-.1-.1-.3-.1-.4-3.7-13.6-18.7-21.4-33.7-17.6l3.8 14c1.2 0 2.2.5 2.5 1.4l2.8 10.4c.3 1.1-.7 2.4-2.3 2.9l14.8 54.6 16.4-4.5c6.4-1.8 10.3-7.7 8.8-13.4z"/><path class="st19" d="M1209.8 391.7c.3-.1.7-.1 1-.1l-3.8-14-1.9.5 3.8 14c.2-.1.5-.3.9-.4z"/><path class="st20" d="M1213.7 406.3c1.6-.4 2.6-1.7 2.3-2.9l-2.8-10.4c-.2-.9-1.3-1.4-2.5-1.4-.3 0-.7 0-1 .1l4 14.6z"/><path class="st10" d="M1208.8 392.1c-1 .6-1.6 1.6-1.4 2.5l2.8 10.4c.3 1.1 1.9 1.7 3.5 1.3l-3.9-14.5c-.4 0-.7.2-1 .3z"/><image width="463" height="213" xlink:href="A800D26B4E8107B7.png" transform="translate(692.01 373.356)" overflow="visible" opacity=".3"/><path class="st21" d="M1021.3 499.2c.6.3 5.9 3.3 9.4 5.2h2.3l-11-26.1v19.1h-19v-20h18.6l-12.6-30s-.6-2.4-.2-5h-5.8v-20h19v14.8c1.3.9 2 2 2 2l17 40.4 2.1-1.1-10.1-24.4s-1.1-5.2 5.8-8.1 10.2 2.4 10.2 2.4l2 4.8v-2.8h1.3l-1-2.2s-1.4-2.8.6-5.8h-.9v-20h19v20h-2.5c1.2 2.8 5.1 12.3 7.5 18v-5.7l-3.9-9.2s-2.6-5.4 3.9-8.8v-14.3h19v20h-5.6c.9 2.1 2 4.8 3.3 8h2.2v5.4c1.6 3.8 3.3 7.9 5 12v-17.4h19v20H1100c1 2.3 1.9 4.7 2.9 7h15v20h-6.7c1.5 3.7 2.5 6 2.5 6s.1.3 0 1h11.2v-117H706v117h303.2c.1-.4.3-.9.5-1.3 3.5-8.3 10.8-4.4 11.6-3.9zm77.7-103.8h19v20h-19v-20zm0 27h19v20h-19v-20zm-24-27h19v20h-19v-20zm-24 0h19v20h-19v-20zm-48 0h19v20h-19v-20zm-168 0h19v20h-19v-20zm0 27h19v20h-19v-20zm0 28h19v20h-19v-20zm-24-55h19v20h-19v-20zm0 27h19v20h-19v-20zm0 28h19v20h-19v-20zm-24-55h19v20h-19v-20zm0 27h19v20h-19v-20zm0 28h19v20h-19v-20zm-24-55h19v20h-19v-20zm0 27h19v20h-19v-20zm0 28h19v20h-19v-20zm-29 46h-19v-20h19v20zm0-26h-19v-20h19v20zm0-28h-19v-20h19v20zm0-27h-19v-20h19v20zm24 81h-19v-20h19v20zm0-26h-19v-20h19v20zm0-28h-19v-20h19v20zm0-27h-19v-20h19v20zm120 82H763v-20h115v20zm0-27h-19v-20h19v20zm0-28h-19v-20h19v20zm0-27h-19v-20h19v20zm24 82h-19v-20h19v20zm0-27h-19v-20h19v20zm0-28h-19v-20h19v20zm0-27h-19v-20h19v20zm24 82h-19v-20h19v20zm0-27h-19v-20h19v20zm0-28h-19v-20h19v20zm0-27h-19v-20h19v20zm48 82h-19v-20h19v20zm0-55h-19v-20h19v20zm0-27h-19v-20h19v20zm24 82h-19v-20h19v20zm0-27h-19v-20h19v20zm0-28h-19v-20h19v20zm0-27h-19v-20h19v20z"/><path class="st21" d="M1058.8 471.6l2.1-1-.1-.2h-2.6z"/><path class="st2" d="M715 395.4h19v20h-19zm0 55h19v20h-19zm24 0h19v20h-19zm0-55h19v20h-19zm24 0h19v20h-19zm24 0h19v20h-19zm48 0h19v20h-19zm24 0h19v20h-19zm24 0h19v20h-19zm24 0h19v20h-19zm-96 0h19v20h-19zm168 0h19v20h-19zm24 0h19v20h-19zm-48 0h19v20h-19zm24 27h19v20h-19zm0 28h19v20h-19zm24-28v20h5.8c.4-2.3 1.6-4.8 4.9-6 3.9-1.4 6.6-.4 8.2.8v-14.8H1003zm-48 0h19v20h-19zm24 55h19v20h-19zm24 20h19v-19.1l-.4-.9H1003zm-48-20h19v20h-19zm120-82h19v20h-19zm24 0h19v20h-19zm-48 0h19v20h-19zm43 27h-19v14.3c.1-.1.3-.2.4-.2 7.1-3.4 10.6.4 11.2 1.8.1.2.7 1.7 1.8 4.2h5.6v-20.1zm5 0h19v20h-19zm-29 0h-19v20h.9c.8-1.1 2.1-2.3 4.1-3.3 7.5-3.8 10.5 1.4 11.1 2.6.1.1.2.4.3.8h2.5l.1-20.1zm6.8 42.4l2.1-.9-3.9-9.2v5.7c1.1 2.6 1.8 4.4 1.8 4.4zm15-14.4c.7 1.7 1.4 3.5 2.2 5.4v-5.4h-2.2zm26.2 0h-19v17.4c.4.9.7 1.7 1.1 2.6h17.9v-20zm-67 2.7l7.2 17.3h2.6l-8.5-20h-1.3zm67 24.3h-15c3.2 7.8 6.3 15.1 8.3 20h6.7v-20zm-403-55h19v20h-19zm24 0h19v20h-19zm24 0h19v20h-19zm24 0h19v20h-19zm48 0h19v20h-19zm24 0h19v20h-19zm24 0h19v20h-19zm24 0h19v20h-19zm-96 0h19v20h-19zm-96 54h19v20h-19zm24 0h19v20h-19zm24-26h19v20h-19zm24 0h19v20h-19zm48 0h19v20h-19zm24 0h19v20h-19zm24 0h19v20h-19zm24 0h19v20h-19zm-24 27h19v20h-19zm24 0h19v20h-19zm-96-27h19v20h-19zm-48 27h115v20H763z"/><path class="st22" d="M1058.3 541.2l52.2-21.8-2-6c4.2-4.9 5.1-7.7 5.3-9 .1-.7 0-1 0-1s-.9-2.3-2.5-6c-2-4.9-5-12.2-8.3-20-1-2.3-1.9-4.7-2.9-7-.4-.9-.7-1.7-1.1-2.6-1.7-4.2-3.4-8.3-5-12-.8-1.9-1.5-3.7-2.2-5.4-1.3-3.2-2.5-5.9-3.3-8-1-2.5-1.7-4-1.8-4.2-.6-1.4-4.2-5.1-11.2-1.8-.2.1-.3.1-.4.2-6.5 3.4-3.9 8.8-3.9 8.8l3.9 9.2 3.9 9.2-2.1.9s-.7-1.8-1.8-4.4c-2.3-5.7-6.3-15.2-7.5-18-.2-.4-.3-.6-.3-.8-.6-1.2-3.6-6.3-11.1-2.6-2.1 1-3.4 2.2-4.1 3.3-2.1 3-.6 5.8-.6 5.8l1 2.2 8.6 20 .1.2-2.2 1-.5-1.2-7.2-17.3-2-4.8s-3.4-5.2-10.2-2.4-5.8 8.1-5.8 8.1l10.1 24.4-2.1 1.1-17-40.4s-.7-1-2-2c-1.7-1.2-4.4-2.1-8.2-.8-3.3 1.2-4.5 3.7-4.9 6-.4 2.6.2 5 .2 5l12.6 30 .4.9 11 26.1.7 1.7s-1.3-.7-3-1.7c-3.5-2-8.8-5-9.4-5.2-.8-.4-8.2-4.3-11.7 3.9-.2.5-.4.9-.5 1.3-2.3 7.2 3 9.3 3 9.3s27.6 16.3 29.7 17.6 2.8.9 2.8.9c1.4 2.6 11 3.5 11 3.5l2.3 5.8z"/><path class="st2" d="M1114.4 517.8l-59.7 25.2 4.1 9.6 59.7-25.1z"/><path class="st6" d="M1120.4 526.7l-1.9.8-59.7 25.1-2.3 1 7.2 16.8h75.2z"/><image width="282" height="200" xlink:href="A800D26B4E8107C6.png" transform="matrix(.996 0 0 .996 1254.143 156.203)" overflow="visible" opacity=".3"/><path class="st23" d="M1514.1 325.7c0 4.2-3.4 7.5-7.5 7.5l-215.9.2c-4.2 0-7.5-3.4-7.5-7.5l-.1-125.9c0-4.2 3.4-7.5 7.5-7.5l215.9-.2c4.2 0 7.5 3.4 7.5 7.5l.1 125.9z"/><path class="st24" d="M1303.1 198.3h96v118h-96zm96 0h96v118h-96z"/><path class="st25" d="M1356 209.3h34v6h-34zm0 11h34v6h-34zm0 12h33v5h-33zm-44.9 62.1h34v5h-34zm0-45.1h79v6h-79zm0 11h79v6h-79zm0 12h79v5h-79zm0 11h79v6h-79zm87.9-71h79v5h-79zm0 11h79v5h-79zm0 11h79v6h-79zm0 11h79v6h-79zm.1 10h79v5h-79zm0 11h79v6h-79zm0 11h79v6h-79zm0 12h79v5h-79z"/><text transform="translate(1322.649 236.919)" class="st15 st26 st27">A</text><path class="st23" d="M1391 198.3V220l3.1-5.6 2.9 5.6v-21.7z"/><path class="st28" d="M1515 223.3l.1 102.5c0 4.2-3.5 7.3-7.7 7.3h-30.5l-77.9-17-.1-118.5 116.1 25.7z"/><path class="st24" d="M1399.1 316.3l73-25.8-.1-118.5-73 25.7z"/><image width="127" height="145" xlink:href="A800D26B4E8107C9.png" transform="translate(509.483 354.486)" overflow="visible" opacity=".3"/><path class="st29" d="M619.2 454c.7 1.2.3 2.7-.9 3.4l-43.1 24.5c-1.2.7-2.7.3-3.4-.9l-46.9-82.8c-.7-1.2-.3-2.7.9-3.4l43.1-24.5c1.2-.7 2.7-.3 3.4.9l46.9 82.8z"/><path class="st30" d="M616.6 452.1c.6 1.1.2 2.6-.9 3.2l-40.4 22.9c-1.1.6-2.6.2-3.2-.9l-43.9-77.4c-.6-1.1-.2-2.6.9-3.2l40.4-22.9c1.1-.6 2.6-.2 3.2.9l43.9 77.4z"/><path transform="rotate(-29.53 590.378 461.697)" class="st10" d="M589.3 460.5h2.1v2.4h-2.1z"/><path transform="rotate(-29.53 592.801 460.318)" class="st10" d="M591.7 459.1h2.1v2.4h-2.1z"/><path transform="rotate(-29.53 594.134 462.746)" class="st10" d="M593.1 461.6h2.1v2.4h-2.1z"/><path transform="rotate(-29.553 591.776 463.978)" class="st10" d="M590.7 462.8h2.1v2.4h-2.1z"/><path transform="rotate(-29.541 571.938 426.141)" class="st31" d="M549.3 388.7h45.3v75h-45.3z"/><linearGradient id="SVGID_1_" gradientUnits="userSpaceOnUse" x1="790.168" y1="-501.698" x2="805.033" y2="-501.698" gradientTransform="rotate(-29.54 2363.755 411.318)"><stop offset="0" stop-color="#fff"/><stop offset="1"/></linearGradient><path class="st32" d="M557.6 385.6c.2.3 0 .6-.3.8l-11.8 6.7c-.3.2-.7.2-.9-.2-.2-.3-.1-.8.2-1l11.8-6.7c.4-.2.8 0 1 .4z"/><path class="st33" d="M532.7 321.3c0 5.5-4.5 10-10 10l-120.5-.1c-5.5 0-10-4.5-10-10l.1-182.5c0-5.5 4.5-10 10-10l120.5.1c5.5 0 10 4.5 10 10l-.1 182.5z"/><path class="st34" d="M401.2 150.7H525v159.9H401.2z"/><path class="st12" d="M460.6 155.9h56.7v6.4h-56.7z"/><path class="st35" d="M406.4 168.8h110.9v16.8H406.4z"/><path class="st36" d="M406.4 192h112.2v50.3H406.4z"/><path class="st37" d="M406.4 270.6h49v32.2h-49zm61.9.1h49v32.2h-49zM414.1 250h95.4v3.9h-95.4zm12.9 7.8h69.6v3.9H427z"/><circle class="st20" cx="462.3" cy="319.2" r="6.3"/><path transform="matrix(-.9995 .03302 -.03302 -.9995 2771.159 754.573)" class="st38" d="M1343.8 320.8h71v158.7h-71z"/><text transform="matrix(.9982 -.05952 .05952 .9982 1399.642 218.657)" class="st39 st40">Node JS</text><text transform="matrix(.9982 -.05952 .05952 .9982 1400.998 233.002)" class="st39 st40">Angular</text><text transform="matrix(.9982 -.05952 .05952 .9982 1402.354 247.346)" class="st39 st40">Mongo</text><text transform="matrix(.9982 -.05952 .05952 .9982 1403.611 261.697)" class="st39 st40">jQuery</text><text transform="matrix(.9982 -.05952 .05952 .9982 1404.967 276.042)" class="st39 st40">REST API</text><path class="st38" d="M687.3 317h76v42.3h-76z"/><text transform="translate(461.833 443.5)" class="st39 st40">Responsive</text><text transform="translate(461.833 457.9)" class="st39 st40">Design</text></svg>