<svg version="1" xmlns="http://www.w3.org/2000/svg" width="933.333" height="933.333" viewBox="0 0 700.000000 700.000000"><path d="M313.9 12.4c-.2.2-6.2.7-13.4 1-7.1.4-14.8.9-17 1.1-13.6 1.4-16.4 1.7-20.5 2.1-5.6.4-20.8 2.3-23.5 2.8-1.1.2-4.7.7-8 1.1-3.2.3-6.2.8-6.5 1-.3.1-3.2.6-6.5.9-3.3.4-7.6 1.1-9.5 1.6-1.9.5-4.8 1.1-6.5 1.4-36 5.8-108.4 26.5-122.5 35.1-8 4.9-15.5 13.2-19.5 21.7-4.1 8.8-12.3 31.9-17 48.3-1.9 6.6-3.9 13.3-4.4 15-.9 2.7-3.8 13.8-4.6 17.5-.2.8-1.6 6.7-3 13-1.5 6.3-2.9 12.4-3.1 13.5-.2 1.1-.6 3.1-.9 4.5-.3 1.4-.9 5-1.5 8s-1.2 6.6-1.5 8c-.8 3.9-2.3 13.1-3 17.5-.3 2.2-1.1 7.1-1.6 11-.6 3.8-1.2 8.3-1.4 10-.2 1.6-.6 4.8-.9 7-.2 2.2-.8 6.9-1.1 10.5-.4 3.6-.8 7.6-1 9-.4 2.4-.7 6-2 26-1.9 26.6-1.9 73.5-.1 98.8 1.5 20.2 2.4 29.9 3.1 34.2.2 1.4.7 5.6 1 9.5.6 7.7.8 8.7 3 22.5.8 5.2 1.7 11.3 2 13.5 1.9 12.6 7.3 39.5 11.1 55 1.3 5.5 2.6 10.9 2.8 12 1.8 9.7 17.8 60.6 21.8 69.5 4.4 9.7 11.5 17.8 21.2 24.1 12.8 8.4 90.5 30.5 124.6 35.5 1.9.3 4.1.7 4.9 1 .7.2 5.7 1.1 11 1.9 5.3.8 10.6 1.7 11.7 1.9 2.2.5 24.4 3.3 32.4 4.2 2.5.2 6.5.7 9 .9 6 .7 13.3 1.3 25.5 2.1 5.5.3 12.5.8 15.5 1 6.7.4 60 .4 69 0 3.6-.2 11-.7 16.5-1 5.5-.4 12.3-.9 15.1-1.1 5.5-.4 14.4-1.3 18.4-2 1.4-.2 5.4-.7 9-1 3.6-.4 11.7-1.5 18-2.5 6.3-1 13.3-2.1 15.5-2.5 3.9-.5 18-3.1 22-3.9 1.1-.3 6.5-1.4 12-2.5 31.7-6.7 90.6-24.1 107-31.7 9.8-4.6 19-14.1 24.5-25.2 3.1-6.2 12.8-34.8 18.3-53.7 3.2-10.9 11.3-43.4 12.4-49.5.8-4.6 3.4-18.5 4.3-23 .9-4.4 2.3-12.7 3.5-22 .3-2.5 1-7 1.5-10s1.2-8.2 1.5-11.5c.3-3.3.8-8.3 1.2-11 .9-8.4 1.1-10.7 1.8-20 .3-5 .8-11.6 1.1-14.7 1.8-20.8 1.8-76 0-97.9-.3-3.5-.8-10.5-1.1-15.4-.3-5-.7-10.6-1-12.5-.5-4-1.3-10.4-3-26-.3-2.5-1-7-1.5-10s-1.2-7.8-1.6-10.5c-1.1-8.8-7.4-41.6-10.5-54.5-1.7-6.9-3.2-13.3-3.4-14.3-.2-1-.6-2.6-.9-3.5-.3-.9-.7-2.8-1-4.2-2.3-12.2-19.4-64.5-23.4-71.7-3.3-6-12.2-15.1-18.5-18.7-6.4-3.8-56.2-20.1-70.6-23.1-.9-.2-4.5-1.1-8.1-2-3.6-.8-7.4-1.8-8.5-2-1.1-.2-5.8-1.3-10.5-2.4-23.6-5.6-64.5-12.3-88.9-14.6-3.5-.4-7.7-.8-9.4-1-1.7-.2-6.7-.7-11.1-1-4.5-.3-10.6-.8-13.6-1.1-6.1-.6-85.6-1.5-86.1-1zm85.6 34.9c3.9.3 11.3.8 16.5 1.1 5.3.4 10.6.8 11.7 1.1 1.2.2 6.2.6 11 1 4.8.3 10 .8 11.5 1.1 1.5.3 4 .7 5.7.9 18.2 2.3 28 3.8 35.6 5.5 2.2.5 6 1.1 8.5 1.5 17.4 2.5 60.7 14.1 84.2 22.5 27.2 9.9 26.1 8.8 34.7 34.3 3.4 10 6.3 19.1 6.5 20.2.2 1.1 1.8 6.7 3.4 12.5 6.6 22.9 14.7 60.1 18.2 84.5.7 4.4 1.4 8.7 1.5 9.6.3 1.4.8 4.9 1.9 14.4.2 1.6.7 5.9 1.1 9.5.4 3.6.9 7.8 1.1 9.5.2 1.6.6 6.4.9 10.5.3 4.1.8 9.7 1 12.5.7 8.2 1.8 41.3 1.8 52 0 10.4-1.2 46.4-1.8 52.5-.2 1.9-.6 8-1 13.5s-.8 10.2-1 10.6c-.2.3-.7 3.9-1 8-.4 4.1-.8 8.5-1 9.9-.2 1.4-.6 4.7-1 7.5-.3 2.7-.8 6.1-1.1 7.5-.2 1.4-1.1 7-1.9 12.5-4.9 33.2-16.1 79.3-28.3 115.8-5.2 15.5-8.3 21.1-13 23.9-3 1.8-23.9 8.9-37.2 12.8-4.1 1.1-10.4 3-14 4.1-3.6 1-7.4 2.1-8.5 2.3-1.1.2-4.9 1.2-8.5 2.1l-8 2c-.8.2-4.6 1.1-8.5 2-7.1 1.6-23.2 4.9-29.5 6-1.9.3-5.3 1-7.5 1.5-2.2.4-6.2 1.1-9 1.5-2.7.3-7.9 1.1-11.5 1.6-3.6.6-7.6 1.2-9 1.4-3.9.4-13.2 1.6-16 2-1.4.2-5.9.7-10 1-4.1.3-8.6.8-10 1-1.4.2-7.4.7-13.5 1-6 .4-13 .9-15.5 1.1-6.1.5-71.5.4-76.5-.1-2.2-.2-8.9-.6-15-1-6-.3-12.3-.8-14-1-1.6-.2-6.1-.7-10-1-3.8-.3-7.7-.8-8.5-1-.8-.2-4.9-.7-9-1-4.1-.3-8.2-.8-9-1-1.4-.4-12.6-2.1-20-3-1.9-.3-5.5-.9-8-1.4-2.5-.6-9.7-2-16-3.1-6.3-1.2-14.9-3-19-4-4.1-1.1-8.6-2.1-10-2.4-4.5-.8-18.3-4.3-26-6.6-4.1-1.2-8.8-2.5-10.5-3-1.6-.4-6.6-2-11-3.4-29.7-9.4-32.1-10.6-35.9-17.6-5.7-10.6-24.2-73.9-28.1-96.3-.4-1.8-1.7-8.6-3-15.2-2.3-12-3-15.9-4-22.5-.3-1.9-1.1-8-1.9-13.5-.8-5.5-1.8-12.9-2.1-16.5-.4-3.6-.8-7.6-1.1-9-.2-1.4-.6-5.6-1-9.5-.3-3.8-.7-8.8-.9-11-2.7-30.3-2.7-89.6 0-122 .7-8.9 1.6-17.9 2-21 .3-1.7.7-5.7 1-9 .3-3.3 1-8.7 1.5-12 .5-3.3 1.2-8.3 1.6-11 .3-2.8.8-5.9 1-7 .2-1.1.7-4 1-6.5.3-2.5.8-5.4 1-6.5.2-1.1 1.3-7 2.5-13 5.6-29.4 12.9-58.3 22.7-89 7.6-24 7.9-24.3 29.3-31.3 21.2-6.9 40.4-12.4 59.9-17.1 16.2-3.8 20.4-4.7 35.5-7.6 1.7-.3 4.1-.8 5.5-1 5.2-1.1 23.2-3.9 31-4.9 2.5-.3 5.5-.8 6.7-1 1.2-.3 5.4-.8 9.4-1.1 4-.4 8-.8 8.8-1 4.7-.9 17.5-1.9 38.1-3 7.4-.4 13.6-.8 13.8-1 .4-.4 71.2.3 78.7.8z"/><path d="M415.3 80.7c-6 5.4-14 12.5-17.8 15.8-3.9 3.3-7.2 6.2-7.5 6.5-1.1 1.2-25.4 21.3-40 33.1-23.1 18.6-39.9 31.6-66 51.2-12.9 9.7-23.9 18-24.5 18.4-.5.5-5.9 4.4-12 8.8-18.1 13-38.6 31.3-48.1 43-13.2 16.3-17.6 28.3-17 46.9.4 11.9.6 13.2 3.5 22.5 8.1 25.9 30.7 41.1 60.6 40.6 14.3-.2 15.7-.4 15-1.5-.3-.6.5-1 1.9-1 1.3 0 5.8-.7 9.8-1.6 4-.8 8.4-1.8 9.8-2 1.4-.3 13.8-3.2 27.5-6.6 18.2-4.5 26-6.8 28.5-8.7 1.9-1.3-.6 1.6-5.5 6.5-19.8 19.5-29.8 34.5-35.5 52.9-3.1 10.3-3.5 13.5-3.5 29 .1 14.9 1.1 20.1 6.3 32 6.6 15.1 21.5 32.2 37.5 42.8 16.2 10.7 55.7 29.4 60.3 28.5 1.2-.2-.2-1.9-5.2-6-12.2-10-21.8-21.6-27.6-33.3-7.1-14.3-9.1-22.5-9.1-38 0-13.4 1.6-22.2 6.3-34.3 2.7-7 3.9-8.7 11.3-15.8 12-11.6 17.8-16.4 42.2-35.4 26.8-20.8 28.7-22.5 39.3-32.5 19.6-18.6 25.3-33.1 18.8-48-2.6-5.8-9.3-13.2-14.2-15.7-1.6-.8-3.8-1.9-4.9-2.5-10-5.5-17.3-7-32.5-6.8-7.4.2-14.6.5-16 .9-1.4.3-7.2 1.5-13 2.6-5.8 1.2-17.7 3.7-26.5 5.6-8.8 2-17.1 3.8-18.5 4-1.3.3-5.6 1.2-9.5 2-8.3 1.8-7.7 1.7-23.5 4.4-6.9 1.1-13.6 2.3-15 2.5-1.4.3-5.4.7-9 1.1-3.6.3-6.9.8-7.5 1.1-2.2 1.1 17.3-17 31-28.8 7.8-6.7 32.9-26.6 44.5-35.4 38.7-29.2 58.4-50 70.4-74.1 9.9-20.2 13-40.8 8.5-58.4-1.9-7.5-8.9-23-11.4-25-1-.9-3.8 1.1-12.2 8.7zM259.5 365c-.3.5-1.2 1-1.8 1-.7 0-.6-.4.3-1 1.9-1.2 2.3-1.2 1.5 0zM345 548.4c-10.6 2.2-19.2 10.6-22.6 22.3-1.7 5.8-2.2 17.9-1.1 24.9 1.5 10.2 9 21 17.3 24.9 5.9 2.8 16.4 3.2 23.1.9 9.6-3.2 17-12.1 19.4-23.2 6.6-31.2-10.6-55-36.1-49.8zm12.5 8.2c5.7 1.1 11.3 7.7 13.9 16.3 1.1 3.7 1.4 8.1 1.2 14.8-.3 7.9-.9 10.3-3.3 15.1-1.5 3.1-4.5 7-6.6 8.7-3.5 2.7-4.6 3-11.2 3s-7.7-.3-11.2-3c-2.1-1.8-5.1-5.7-6.8-9-6.1-12.1-3.7-34.4 4.5-41.3 3.5-3 6.2-4.5 9.3-5.2 3.1-.7 4-.6 10.2.6zM245 585.4v36.5l4.4-.2 4.4-.1-.1-30.3c0-16.7.2-30.5.4-30.8.3-.2 2.9 6.7 5.8 15.3 3 8.6 6.7 19.3 8.3 23.8l2.9 8.1 4.6-.1 4.5-.1 2.5-7c1.3-3.9 3.9-11.5 5.8-17 6.3-18.4 8.4-24 8.6-23 .1.5.2 14.5.3 31l.1 30 4.3.3c3.5.2 4.2 0 4.3-1.5.1-2.4.1-68.5 0-70.1-.1-1-1.9-1.2-6.8-1l-6.8.3-8.4 24.3c-7.9 22.8-8.5 24.2-9.6 21.5-.6-1.5-4.5-12.6-8.6-24.6l-7.4-21.7H245v36.4zm151.9-33.2c0 1.8-.1 18.1-.1 36.3l-.1 33h8.8v-31.2c0-28.4.3-34.4 1.8-28.1.4 2.1 13.5 40 15.1 43.9.5 1.1 2 1.7 5 1.7 4.2.1 4.4 0 5.9-4.1 2.2-5.8 10.1-28.7 12.8-37 1.2-3.7 2.4-6.6 2.6-6.4.2.2.4 14.2.5 31.1l.1 30.6 4.3-.2 4.4-.1V549h-13.6l-5.8 17.1c-3.2 9.4-7.1 20.5-8.6 24.7l-2.8 7.7-1.5-5c-.9-2.8-4.4-12.9-7.8-22.5-3.4-9.6-6.4-18.5-6.6-19.8-.5-2-1.1-2.2-7.4-2.2H397l-.1 3.2zm79.4 33l.2 36.3 4.3.1 4.2.2v-4.7c.1-15.1.1-63 .1-65.4-.1-2.5-.4-2.7-4.5-2.7h-4.5l.2 36.2z"/></svg>