<?xml version="1.0" encoding="iso-8859-1"?>
<!-- Generator: Adobe Illustrator 19.0.0, SVG Export Plug-In . SVG Version: 6.00 Build 0)  -->
<svg version="1.1" id="Layer_1" xmlns="http://www.w3.org/2000/svg" xmlns:xlink="http://www.w3.org/1999/xlink" x="0px" y="0px"
	 viewBox="0 0 512 512" style="enable-background:new 0 0 512 512;" xml:space="preserve">
<polygon style="fill:#AFB9D2;" points="158.897,392.828 167.724,331.034 256,331.034 264.828,392.828 "/>
<polygon style="fill:#959CB3;" points="259.784,357.517 256,331.034 167.724,331.034 163.94,357.517 "/>
<path style="fill:#464655;" d="M406.069,339.862H17.655C7.904,339.862,0,331.958,0,322.207v-256c0-9.751,7.904-17.655,17.655-17.655
	h388.414c9.751,0,17.655,7.904,17.655,17.655v256C423.724,331.958,415.82,339.862,406.069,339.862z"/>
<path style="fill:#C7CFE2;" d="M406.069,339.862H17.655C7.904,339.862,0,331.958,0,322.207v-35.31h423.724v35.31
	C423.724,331.958,415.82,339.862,406.069,339.862z"/>
<rect x="22.069" y="70.621" style="fill:#C3E678;" width="379.586" height="194.207"/>
<circle style="fill:#959CB3;" cx="211.862" cy="313.379" r="13.241"/>
<path style="fill:#C7CFE2;" d="M264.828,401.655H158.897c-4.875,0-8.828-3.953-8.828-8.828l0,0c0-4.875,3.953-8.828,8.828-8.828
	h105.931c4.875,0,8.828,3.953,8.828,8.828l0,0C273.655,397.703,269.703,401.655,264.828,401.655z"/>
<path style="fill:#707384;" d="M494.345,463.448H379.586c-9.751,0-17.655-7.904-17.655-17.655V198.621
	c0-9.751,7.904-17.655,17.655-17.655h114.759c9.751,0,17.655,7.904,17.655,17.655v247.172
	C512,455.544,504.096,463.448,494.345,463.448z"/>
<rect x="375.172" y="216.276" style="fill:#FFE182;" width="123.586" height="211.862"/>
<g>
	<path style="fill:#464655;" d="M454.621,203.034h-26.483c-2.438,0-4.414-1.976-4.414-4.414l0,0c0-2.438,1.976-4.414,4.414-4.414
		h26.483c2.438,0,4.414,1.976,4.414,4.414l0,0C459.034,201.058,457.058,203.034,454.621,203.034z"/>
	<path style="fill:#464655;" d="M410.483,203.034L410.483,203.034c-2.438,0-4.414-1.976-4.414-4.414l0,0
		c0-2.438,1.976-4.414,4.414-4.414l0,0c2.438,0,4.414,1.976,4.414,4.414l0,0C414.897,201.058,412.92,203.034,410.483,203.034z"/>
	<circle style="fill:#464655;" cx="436.966" cy="445.793" r="8.828"/>
</g>
<g>
</g>
<g>
</g>
<g>
</g>
<g>
</g>
<g>
</g>
<g>
</g>
<g>
</g>
<g>
</g>
<g>
</g>
<g>
</g>
<g>
</g>
<g>
</g>
<g>
</g>
<g>
</g>
<g>
</g>
</svg>
