<?xml version="1.0" encoding="utf-8"?>
<!-- Generator: Adobe Illustrator 19.0.0, SVG Export Plug-In . SVG Version: 6.00 Build 0)  -->
<svg version="1.1" id="Layer_1" xmlns="http://www.w3.org/2000/svg" xmlns:xlink="http://www.w3.org/1999/xlink" x="0px" y="0px"
	 viewBox="-275 367.7 59.4 59.3" style="enable-background:new -275 367.7 59.4 59.3;" xml:space="preserve">
<style type="text/css">
	.st0{fill:#5B5B5B;}
	.st1{fill:none;}
	.st2{fill:url(#SVGID_1_);}
	.st3{fill:url(#SVGID_2_);}
	.st4{opacity:0.43;fill:url(#SVGID_3_);enable-background:new    ;}
	.st5{fill:url(#SVGID_4_);}
	.st6{fill:url(#SVGID_5_);}
	.st7{fill:url(#SVGID_6_);}
	.st8{fill:url(#SVGID_7_);}
	.st9{fill:url(#SVGID_8_);}
	.st10{fill:url(#SVGID_9_);}
	.st11{opacity:0.25;fill:url(#SVGID_10_);enable-background:new    ;}
	.st12{fill:url(#SVGID_11_);}
	.st13{opacity:0.17;fill:url(#SVGID_12_);enable-background:new    ;}
	.st14{fill:#515151;}
	.st15{font-family:'Roboto-Bold';}
	.st16{font-size:8.4694px;}
</style>
<path class="st0" d="M-245.3,426.1c-7.9,0-15.5-1.4-22.3-3.8c-1.2-0.5-2.1-1.5-2.6-2.7c-2.4-6.7-3.8-14.4-3.8-22.1
	s1.3-15.4,3.8-22.1c0.5-1.5,1.4-2.4,2.6-2.9c6.8-2.5,14.4-3.8,22.3-3.8c7.9,0,15.5,1.4,22.3,3.8c1.3,0.5,2.2,1.5,2.6,2.7
	c2.4,6.7,3.8,14.4,3.8,22.1c0,7.8-1.3,15.4-3.8,22.1c-0.5,1.3-1.5,2.3-2.6,2.7C-229.8,424.6-237.4,426.1-245.3,426.1z M-245.3,371.6
	c-7.5,0-14.8,1.3-21.3,3.6c-0.4,0.2-0.8,0.5-1,1.1c-2.2,6.4-3.5,13.7-3.5,21.2s1.3,14.8,3.6,21.2c0.2,0.5,0.5,0.9,1,1.1
	c6.4,2.3,13.8,3.6,21.3,3.6s14.8-1.3,21.3-3.6c0.4-0.2,0.8-0.5,1-1.1c2.3-6.4,3.6-13.8,3.6-21.2c0-7.4-1.3-14.8-3.6-21.2
	c-0.2-0.5-0.5-0.9-1-1.1C-230.5,372.6-237.8,371.6-245.3,371.6z"/>
<rect x="-260.7" y="394.9" class="st1" width="33.6" height="28.2"/>
<rect x="-256.4" y="413.3" class="st1" width="22.5" height="8.5"/>
<g>
	<g>
		
			<linearGradient id="SVGID_1_" gradientUnits="userSpaceOnUse" x1="-288.3576" y1="231.0601" x2="-268.4672" y2="231.0601" gradientTransform="matrix(0.9487 -0.316 -0.316 -0.9487 89.7353 524.8658)">
			<stop  offset="0" style="stop-color:#262262"/>
			<stop  offset="0.5" style="stop-color:#662D91"/>
			<stop  offset="0.6733" style="stop-color:#642C8E"/>
			<stop  offset="0.7998" style="stop-color:#5C2A85"/>
			<stop  offset="0.911" style="stop-color:#4E2675"/>
			<stop  offset="1" style="stop-color:#3E2262"/>
		</linearGradient>
		<path class="st2" d="M-255.6,392.5c0,0,2.1,1.1,12.3-1.3c2.3-0.5,3.8-0.9,5.2-0.6c0,0,1.3,1.3-1.6,2.5c-2.8,1.2-6.8,4.1-6.8,4.1
			s-5.7,1.5-6.2,1.4s-2.9,0.2-4.2-1.8C-258.1,394.7-255.6,392.5-255.6,392.5z"/>
		
			<linearGradient id="SVGID_2_" gradientUnits="userSpaceOnUse" x1="-288.3576" y1="231.0601" x2="-268.4672" y2="231.0601" gradientTransform="matrix(0.9487 -0.316 -0.316 -0.9487 89.7353 524.8658)">
			<stop  offset="0" style="stop-color:#17224D"/>
			<stop  offset="0.1136" style="stop-color:#32235C;stop-opacity:0.8864"/>
			<stop  offset="0.2834" style="stop-color:#55256E;stop-opacity:0.7166"/>
			<stop  offset="0.4564" style="stop-color:#70267D;stop-opacity:0.5436"/>
			<stop  offset="0.6319" style="stop-color:#832687;stop-opacity:0.3681"/>
			<stop  offset="0.8111" style="stop-color:#8E278D;stop-opacity:0.1889"/>
			<stop  offset="1" style="stop-color:#92278F;stop-opacity:0"/>
		</linearGradient>
		<path class="st3" d="M-255.6,392.5c0,0,2.1,1.1,12.3-1.3c2.3-0.5,3.8-0.9,5.2-0.6c0,0,1.3,1.3-1.6,2.5c-2.8,1.2-6.8,4.1-6.8,4.1
			s-5.7,1.5-6.2,1.4s-2.9,0.2-4.2-1.8C-258.1,394.7-255.6,392.5-255.6,392.5z"/>
		
			<linearGradient id="SVGID_3_" gradientUnits="userSpaceOnUse" x1="-288.3561" y1="230.7596" x2="-271.8515" y2="230.7596" gradientTransform="matrix(0.9487 -0.316 -0.316 -0.9487 89.7353 524.8658)">
			<stop  offset="0" style="stop-color:#92278F;stop-opacity:0"/>
			<stop  offset="0.1214" style="stop-color:#972D90;stop-opacity:0.1214"/>
			<stop  offset="0.429" style="stop-color:#9F3591;stop-opacity:0.429"/>
			<stop  offset="1" style="stop-color:#A13791"/>
		</linearGradient>
		<path class="st4" d="M-249.3,395.7c-6.1,1.5-5.9,0.1-5.9,0.1s-0.7-1.1-1.3-2.3c-0.5,0.8-1,2.1-0.3,3.2c1.3,2.1,3.6,1.8,4.2,1.8
			s6.2-1.4,6.2-1.4s3.2-2.3,5.8-3.7C-242.7,394-245.8,394.8-249.3,395.7z"/>
		
			<linearGradient id="SVGID_4_" gradientUnits="userSpaceOnUse" x1="-290.145" y1="237.5449" x2="-263.6369" y2="237.5449" gradientTransform="matrix(0.9487 -0.316 -0.316 -0.9487 89.7353 524.8658)">
			<stop  offset="0" style="stop-color:#1C75BC"/>
			<stop  offset="0.5" style="stop-color:#00AEEF"/>
			<stop  offset="1" style="stop-color:#4FD5DF"/>
		</linearGradient>
		<path class="st5" d="M-238.8,373.7c0,0,4.9,5.5-4.8,12.8c-10.4,7.7-13.1,12.3-8.8,12.2c0,0-6,1.5-6.9-4.3
			c-0.6-3.4,1.7-5.4,4.5-7.7C-255,386.6-245.3,379.7-238.8,373.7z"/>
		
			<linearGradient id="SVGID_5_" gradientUnits="userSpaceOnUse" x1="-280.441" y1="210.4019" x2="-280.441" y2="220.9857" gradientTransform="matrix(0.9487 -0.316 -0.316 -0.9487 89.7353 524.8658)">
			<stop  offset="0" style="stop-color:#DA1C5C"/>
			<stop  offset="0.5" style="stop-color:#9E1F63"/>
			<stop  offset="1" style="stop-color:#9E1F63"/>
		</linearGradient>
		<path class="st6" d="M-243.9,403.1c0,0-3.3,5.6,2.8,10.1c0.1,0,0,0.1-0.1,0.1c-1-0.3-2.5-1-3.8-1.7
			C-248.8,409.5-245.8,405.2-243.9,403.1z"/>
		
			<linearGradient id="SVGID_6_" gradientUnits="userSpaceOnUse" x1="-280.3836" y1="210.4019" x2="-280.3836" y2="220.9857" gradientTransform="matrix(0.9487 -0.316 -0.316 -0.9487 89.7353 524.8658)">
			<stop  offset="0" style="stop-color:#DA1C5C"/>
			<stop  offset="0.9951" style="stop-color:#351840"/>
		</linearGradient>
		<path class="st7" d="M-243.9,403.1c0,0-3.3,5.6,2.8,10.1c0.1,0,0,0.1-0.1,0.1c-1-0.3-3.2-1.2-4.2-2.1
			C-248.6,408.3-245.8,405.2-243.9,403.1z"/>
		
			<linearGradient id="SVGID_7_" gradientUnits="userSpaceOnUse" x1="-284.7161" y1="222.2068" x2="-266.0397" y2="222.2068" gradientTransform="matrix(0.9487 -0.316 -0.316 -0.9487 89.7353 524.8658)">
			<stop  offset="0" style="stop-color:#EE2A7B"/>
			<stop  offset="0.5" style="stop-color:#DA1C5C"/>
			<stop  offset="1" style="stop-color:#9E1F63"/>
		</linearGradient>
		<path class="st8" d="M-234.5,393.5c-0.2-2.6-3.8-3-3.8-3c2.2,1.2-4.5,2.6-9.4,8.1c-3.5,3.9-2.1,7.8-2.1,7.8l0,0
			c1.1,3.6,4.8,5.2,4.8,5.2C-250.9,403-234.1,398.4-234.5,393.5z"/>
		
			<linearGradient id="SVGID_8_" gradientUnits="userSpaceOnUse" x1="-284.7161" y1="222.2068" x2="-266.0104" y2="222.2068" gradientTransform="matrix(0.9487 -0.316 -0.316 -0.9487 89.7353 524.8658)">
			<stop  offset="0" style="stop-color:#EE2A7B;stop-opacity:0"/>
			<stop  offset="0.1889" style="stop-color:#F13178;stop-opacity:0.3778"/>
			<stop  offset="0.5" style="stop-color:#F23477"/>
			<stop  offset="0.606" style="stop-color:#EE3376;stop-opacity:0.7881"/>
			<stop  offset="0.7168" style="stop-color:#E13073;stop-opacity:0.5664"/>
			<stop  offset="0.8299" style="stop-color:#CC2B6E;stop-opacity:0.3402"/>
			<stop  offset="0.9438" style="stop-color:#AF2367;stop-opacity:0.1123"/>
			<stop  offset="1" style="stop-color:#9E1F63;stop-opacity:0"/>
		</linearGradient>
		<path class="st9" d="M-234.5,393.5c-0.1-2.7-3.8-3-3.8-3c2.2,1.2-4.5,2.6-9.4,8.1c-3.5,3.9-2.1,7.8-2.1,7.8l0,0
			c1.1,3.6,4.8,5.2,4.8,5.2C-250.9,403-234.6,398.6-234.5,393.5z"/>
		
			<linearGradient id="SVGID_9_" gradientUnits="userSpaceOnUse" x1="-290.145" y1="237.6239" x2="-263.9635" y2="237.6239" gradientTransform="matrix(0.9487 -0.316 -0.316 -0.9487 89.7353 524.8658)">
			<stop  offset="0" style="stop-color:#D9E8BC"/>
			<stop  offset="1" style="stop-color:#4FD5DF"/>
		</linearGradient>
		<path class="st10" d="M-249.2,385.8c11.2-8,10.4-12.1,10.4-12.1c-5.8,5.5-16.2,12.9-16.2,12.9c-2.9,2.4-5,4.3-4.5,7.7
			c0.9,5.8,6.9,4.3,6.9,4.3C-259.5,399.9-260.8,394-249.2,385.8z"/>
		
			<linearGradient id="SVGID_10_" gradientUnits="userSpaceOnUse" x1="-283.1078" y1="226.2128" x2="-269.2057" y2="250.2919" gradientTransform="matrix(0.9487 -0.316 -0.316 -0.9487 89.7353 524.8658)">
			<stop  offset="0" style="stop-color:#1C75BC;stop-opacity:0"/>
			<stop  offset="2.620730e-02" style="stop-color:#2E80C0;stop-opacity:5.241460e-02"/>
			<stop  offset="0.1239" style="stop-color:#6DA6CE;stop-opacity:0.2478"/>
			<stop  offset="0.2174" style="stop-color:#A1C6DA;stop-opacity:0.4349"/>
			<stop  offset="0.3043" style="stop-color:#CADFE3;stop-opacity:0.6085"/>
			<stop  offset="0.3829" style="stop-color:#E7F0EA;stop-opacity:0.7659"/>
			<stop  offset="0.4508" style="stop-color:#F9FBEE;stop-opacity:0.9016"/>
			<stop  offset="0.5" style="stop-color:#FFFFEF"/>
			<stop  offset="0.6046" style="stop-color:#FCFEEF;stop-opacity:0.7907"/>
			<stop  offset="0.681" style="stop-color:#F3FCEE;stop-opacity:0.6379"/>
			<stop  offset="0.7485" style="stop-color:#E3F8EC;stop-opacity:0.5031"/>
			<stop  offset="0.8107" style="stop-color:#CCF3EA;stop-opacity:0.3786"/>
			<stop  offset="0.8694" style="stop-color:#AFECE8;stop-opacity:0.2612"/>
			<stop  offset="0.9254" style="stop-color:#8CE3E5;stop-opacity:0.1491"/>
			<stop  offset="0.9784" style="stop-color:#62DAE1;stop-opacity:4.321724e-02"/>
			<stop  offset="1" style="stop-color:#4FD5DF;stop-opacity:0"/>
		</linearGradient>
		<path class="st11" d="M-238.8,373.7L-238.8,373.7c0,0,0.9,4-10.4,12.1c-8.9,6.3-10.2,11.3-7.2,12.7c1,0.4,2,0.4,2.8,0.4
			c0.4,0,0.7-0.1,1.1-0.2c-4.3,0.1-1.6-4.4,8.8-12.2C-233.9,379.2-238.8,373.7-238.8,373.7z"/>
		
			<linearGradient id="SVGID_11_" gradientUnits="userSpaceOnUse" x1="-284.7016" y1="222.1751" x2="-266.9897" y2="222.1751" gradientTransform="matrix(0.9487 -0.316 -0.316 -0.9487 89.7353 524.8658)">
			<stop  offset="0" style="stop-color:#EE2A7B;stop-opacity:0"/>
			<stop  offset="0.1864" style="stop-color:#D92775;stop-opacity:0.1864"/>
			<stop  offset="0.524" style="stop-color:#B9236B;stop-opacity:0.524"/>
			<stop  offset="0.8073" style="stop-color:#A52065;stop-opacity:0.8073"/>
			<stop  offset="1" style="stop-color:#9E1F63"/>
		</linearGradient>
		<path class="st12" d="M-237.1,394.1c2-1.5,1-2.7,0.9-2.8c-1-0.7-2-0.8-2-0.8c2.2,1.2-4.5,2.6-9.4,8.1c-3.5,3.9-2.1,7.8-2.1,7.8
			l0,0c1.1,3.6,4.8,5.2,4.8,5.2C-256,405.2-239.3,395.7-237.1,394.1z"/>
		
			<linearGradient id="SVGID_12_" gradientUnits="userSpaceOnUse" x1="-283.9903" y1="222.2068" x2="-266.0107" y2="222.2068" gradientTransform="matrix(0.9487 -0.316 -0.316 -0.9487 89.7353 524.8658)">
			<stop  offset="0" style="stop-color:#EE2A7B;stop-opacity:0"/>
			<stop  offset="4.750010e-02" style="stop-color:#F25797;stop-opacity:9.500021e-02"/>
			<stop  offset="0.1021" style="stop-color:#F583B2;stop-opacity:0.2041"/>
			<stop  offset="0.1591" style="stop-color:#F8A9CA;stop-opacity:0.3182"/>
			<stop  offset="0.2179" style="stop-color:#FBC9DD;stop-opacity:0.4358"/>
			<stop  offset="0.2791" style="stop-color:#FDE1EC;stop-opacity:0.5582"/>
			<stop  offset="0.3437" style="stop-color:#FEF2F7;stop-opacity:0.6873"/>
			<stop  offset="0.4138" style="stop-color:#FFFCFD;stop-opacity:0.8276"/>
			<stop  offset="0.5" style="stop-color:#FFFFFF"/>
			<stop  offset="0.5637" style="stop-color:#FDFBFC;stop-opacity:0.8726"/>
			<stop  offset="0.6304" style="stop-color:#F8EEF3;stop-opacity:0.7391"/>
			<stop  offset="0.6985" style="stop-color:#EFD9E5;stop-opacity:0.6029"/>
			<stop  offset="0.7676" style="stop-color:#E2BCD0;stop-opacity:0.4648"/>
			<stop  offset="0.8374" style="stop-color:#D296B6;stop-opacity:0.3252"/>
			<stop  offset="0.9078" style="stop-color:#BE6896;stop-opacity:0.1843"/>
			<stop  offset="0.9775" style="stop-color:#A63270;stop-opacity:4.495645e-02"/>
			<stop  offset="1" style="stop-color:#9E1F63;stop-opacity:0"/>
		</linearGradient>
		<path class="st13" d="M-238.3,390.5c0,0,1,0.1,2,0.8c0.1,0.1,1.1,1.3-0.9,2.8c-2.2,1.6-19.1,10.7-7.8,17.5
			c-6-8.6,10.4-13.1,10.5-18.1C-234.6,390.8-238.3,390.5-238.3,390.5z"/>
	</g>
	<g>
		<text transform="matrix(0.9219 0 0 1 -254.9858 420.3563)" class="st14 st15 st16">MOMI</text>
	</g>
</g>
</svg>
