<?xml version="1.0" encoding="utf-8"?>
<!-- Generator: Adobe Illustrator 19.0.0, SVG Export Plug-In . SVG Version: 6.00 Build 0)  -->
<svg version="1.1" id="Layer_1" xmlns="http://www.w3.org/2000/svg" xmlns:xlink="http://www.w3.org/1999/xlink" x="0px" y="0px"
	 viewBox="334 -4 1280 800" style="enable-background:new 334 -4 1280 800;" xml:space="preserve">
<style type="text/css">
	.st0{display:none;opacity:0.8;fill:#C69C6D;enable-background:new    ;}
	.st1{fill:#E7E7E9;}
	.st2{fill:#FFFFFF;}
	.st3{fill:#343434;}
	.st4{fill:#FFCE6A;}
	.st5{fill:#404042;}
	.st6{fill:#F27441;}
	.st7{fill:#1AB99B;}
	.st8{fill:#F59938;}
	.st9{fill:#C1272D;}
	.st10{fill:#B3B3B3;}
	.st11{fill:#29ABE2;}
	.st12{fill:#F15A24;}
	.st13{fill:#00A99D;}
	.st14{fill:#D4145A;}
	.st15{fill:#0000FF;}
	.st16{fill:#1B1464;}
	.st17{fill:#ED1E79;}
	.st18{fill:#E6E6E6;}
	.st19{fill:#CCCCCC;}
	.st20{fill:#666666;}
	.st21{fill:#D1D3D4;}
	.st22{fill:#E7D4C8;}
	.st23{fill:#FF0000;}
	.st24{fill:#F2F2F2;}
	.st25{fill:#999999;}
	.st26{font-family:'MyriadPro-Regular';}
	.st27{font-size:37.6322px;}
	.st28{opacity:0.8;fill:#444444;enable-background:new    ;}
	.st29{fill:#333333;stroke:#000000;stroke-miterlimit:10;}
	.st30{fill:#666666;stroke:#000000;stroke-miterlimit:10;}
	.st31{stroke:#000000;stroke-miterlimit:10;}
	.st32{fill:url(#SVGID_1_);}
	.st33{fill:#B7B9BC;}
	.st34{fill:#FAFFFF;}
	.st35{fill:#FBB21E;}
	.st36{fill:#1EBED1;}
	.st37{fill:#BDB9BE;}
	.st38{fill:none;}
	.st39{font-family:'Chalkduster';}
	.st40{font-size:12px;}
</style>
<rect x="668" y="-7" class="st0" width="1280" height="799"/>
<g>
	
		<image style="overflow:visible;opacity:0.3;enable-background:new    ;" width="740" height="371" xlink:href="A800D26B4E8107BE.png"  transform="matrix(1 0 0 1 564.3825 8.4)">
	</image>
	<g>
		<g>
			<path class="st1" d="M684,283.4c7.1,0.5,58,4.4,122.7,9.2l0,0l193,14.4c68.1,5.1,120,8.9,120,8.9s17.9,5.7,30.9-21.1l-489.4-39
				C661.3,255.7,662.9,281.7,684,283.4z M904.3,280.3c6.1,0,11,3,11,6.6s-4.9,6.6-11,6.6s-11-3-11-6.6S898.3,280.3,904.3,280.3z"/>
			<polygon class="st2" points="582.4,22.4 579.2,39.5 1284.8,117.5 1288.1,99.6 			"/>
			<path class="st3" d="M661.3,255.7l489.4,39l134.1-177.2l-705.7-78L661.3,255.7z M1134.4,282.6L681.6,246L619,56.5l622.7,68.3
				L1134.4,282.6z"/>
			<path class="st2" d="M806.8,292.5l-4,34.7c0,0-2.4,22,21.1,24.4S967,362.2,967,362.2s26.8,7.3,30.9-21.1c4.1-28.5,3.4-34,3.4-34
				l-1.4-0.1L806.8,292.5L806.8,292.5z"/>
			<polygon class="st4" points="1050.5,247.3 1058.6,248 1060.7,243.7 1052.6,243.1 			"/>
			<polygon class="st4" points="1062.2,248.5 1070.1,249 1072.3,245.2 1063.9,244.4 			"/>
			<polygon class="st4" points="1042.2,235.8 1040.7,240.2 1049.1,240.8 1050.9,236.5 			"/>
			<polygon class="st4" points="1038.3,246.3 1046.6,246.9 1048.4,242.6 1039.8,241.9 			"/>
			<polygon class="st4" points="1061,241.9 1063.2,237.6 1055,237 1052.9,241.2 			"/>
			<polygon class="st4" points="1072.5,242.9 1074.8,239.1 1066.3,238.3 1064.6,242.4 			"/>
			<polygon class="st4" points="1084.5,244 1086.6,239.9 1078.6,239.1 1076.6,243.3 			"/>
			<polygon class="st4" points="1065.5,231.7 1057.6,231.1 1055.6,235.3 1063.7,235.9 			"/>
			<polygon class="st4" points="1077.5,233 1069.5,232.6 1067.5,236.3 1075.6,237 			"/>
			<polygon class="st4" points="1053.4,230.8 1044.9,230.2 1043.1,234.2 1051.8,234.9 			"/>
			<path class="st4" d="M681.6,246l452.8,36.6l107.3-157.7L619,56.5L681.6,246z M666.9,95.9l145.5,15.5v4.9l-144.7-15.7L666.9,95.9z
				 M814.4,125l-67-7v-4.6l67,6.5V125z M815.4,139.9v4.9l-64.5-6.7l-0.6-4.8L815.4,139.9z M674,121.9l-1.2-4.9l141.6,13.9v4.9
				L674,121.9z M717.2,148.8l-17.5,8.8c0,0-13.3-6.4-11.4-15.9c0,0,4.4-10.5,26.1-8.1L717.2,148.8z M687.4,180.8l29.7,2.7l3.5,16
				l-28.4-2.4L687.4,180.8z M703.3,236.6l-1.2-4.4l152.6,12.4l0.1,4.9L703.3,236.6z M855.4,240.2l-154.8-13.3l-1.3-4.8l156,13.7
				L855.4,240.2L855.4,240.2z M855.4,230.5l-157.7-13.8l-1.3-5.1l159,14.4V230.5z M855.4,221.2l-160.3-14.6l-1.5-5l161.8,14.7V221.2
				z M855.9,212.2l-123.5-11.1l-3.2-16.3l127.6,11.6L855.9,212.2z M863.4,183.7c-0.6,4.3-7.1,6.9-14.4,5.8c-7.4-1-14-5.3-13.4-9.6
				c0-0.1,0.1-0.2,0.1-0.3l-11.7-7.1l0,0c-2.8,1.7-7.1,2.4-11.7,1.7c-4-0.6-7.7-2-10.3-3.9l0,0l-9.7,4.1l0,0
				c0.4,0.8,0.7,1.6,0.7,2.5c0.1,3.9-7.2,6.9-14.8,5.8c-7.5-1.1-14.4-5.4-13.8-9.7c0-0.3,0.2-0.7,0.3-1l-0.3,0.4l-17.2-10.1h0.1
				c-19.2,10.4-41.8-2.8-41.8-2.8l17.5-9.1l-2.9-14.9c18,1.8,25.9,9.5,25.9,9.5c9.4,7.4,6.4,12.4,4.1,15.4l0,0l16.6,9.7l0,0
				c3-1.9,8.4-2.3,13.8-1.6c3.7,0.5,6.8,1.5,8.9,2.9l0,0l9.7-4.4l0,0c-0.4-0.8-0.6-1.7-0.5-2.5c0.6-4.3,8.4-5.6,16-4.6
				c7.5,1.1,13.2,4.2,12.6,8.4c-0.1,0.4-0.2,0.8-0.4,1.2l0,0l11.1,7.3c2.9-1.8,8.2-2.3,13.4-1.6C858.6,176.3,864,179.4,863.4,183.7z
				 M823.4,126.1v-15.9l35,3.7v15.7L823.4,126.1z M858.4,134.6v15.7l-33-3.2v-15.9L858.4,134.6z M912.6,149.2l-7.3-20.3l34.5,11.5
				l-6.1,2.4l74,47.3l52.2-9.1l20.3,16.5l37-6.9l-40.9,17.3l-23.6-15.7l-48.9,8.7l-83.5-53.8L912.6,149.2z M1125.1,157.8l-2.4,4.9
				l-142.4-15.5l1.8-4.3L1125.1,157.8z M982.1,139.5l1.8-4.9l145.7,15.2l-2.4,4.6L982.1,139.5z M1117.1,219.3l-5.7,9.1l-30.7-2.8
				l4.9-9.6L1117.1,219.3z M1078.1,218.7l-2.8,6.1l-27-2.5l2.8-6.2L1078.1,218.7z M925.1,224.8l70.9,6.4l-2.2,7l-70-6.2L925.1,224.8
				z M924.9,222.3l1.4-7.2l72.1,6.4l-2.3,7L924.9,222.3z M996.9,241.3l12,1.2l-2.3,6.7l-12-1.2L996.9,241.3z M997.6,238.2l2.4-6.7
				l12.3,1.2l-2.1,7L997.6,238.2z M1000.7,229.3l2.3-7l12.7,1l-2,6.7L1000.7,229.3z M923,234.6l69.3,6.4l-2.2,7l-68.4-6.2L923,234.6
				z M1133.2,238.2l-22.8-2l-11.5,20.5l2.3,1.4c6.7,0.6,11.7,3.8,11.7,7.7c0,4.3-6.3,7.8-14.2,7.8c-7.3,0-13.3-3.1-14.1-7l-25.8-2.5
				c-2,2.3-6.2,3.9-11.2,3.9c-6.8,0-12.3-3-12.3-6.8c0-3.8,5.5-6.8,12.3-6.8c5.6,0,10.4,2.1,11.9,4.9l27.5,2.1
				c0.9-0.7,2-1.4,3.3-1.9l-6.5-3.9l-55.5-5.1l8.9-22.2l5.5-3.7l93.1,9.3L1133.2,238.2z M1191.2,147.1l-12.5,20l-46.9-4.5l11-19.8
				L1191.2,147.1z M1130.6,147.1L984,131.6l1.5-4.6l147.6,15.5L1130.6,147.1z M1100.3,119.6l-3.7,9.3L760,93.1l-1.6-10.5
				L1100.3,119.6z"/>
			<polygon class="st4" points="1074.2,249.4 1082,250.1 1084.1,246 1076.2,245.2 			"/>
			<polygon class="st4" points="1089.6,234 1081.4,233.5 1079.3,237.4 1087.5,238 			"/>
			<polygon class="st4" points="1096.5,246.9 1088.1,246.3 1085.8,250.5 1094.3,251.2 			"/>
			<path class="st4" d="M1093.4,265.7c0,0.1,0,0.1,0,0.2c0.5-1.3,2.2-2.2,4.2-2.2s3.7,1,4.2,2.2c0-0.1,0-0.1,0-0.2
				c0-1.3-1.9-2.4-4.2-2.4C1095.2,263.2,1093.4,264.3,1093.4,265.7z"/>
			<polygon class="st4" points="1102.3,235.3 1093.3,234.8 1091.2,238.4 1100.1,239.1 			"/>
			<polygon class="st4" points="1096.8,245.1 1098.9,240.8 1090.5,240.2 1088.3,244.4 			"/>
			<ellipse class="st3" cx="904.3" cy="286.8" rx="11" ry="6.6"/>
			<polygon class="st5" points="1096.6,128.9 1100.3,119.6 758.4,82.6 760,93.1 			"/>
			<polygon class="st2" points="983.9,131.5 1130.6,147.1 1133,142.5 985.4,127 			"/>
			<polygon class="st2" points="1129.6,149.8 983.9,134.6 982.1,139.5 1127.2,154.4 			"/>
			<polygon class="st2" points="980.3,147.1 1122.6,162.6 1125.1,157.8 982.1,142.8 			"/>
			<polygon class="st6" points="1178.7,167.1 1191.2,147.1 1142.7,142.8 1131.8,162.6 			"/>
			<polygon class="st2" points="1052.7,192.1 1076.3,207.8 1117.1,190.5 1080.1,197.4 1059.8,180.9 1007.6,190.1 933.6,142.8 
				939.7,140.4 905.3,128.9 912.6,149.2 920.2,147.1 1003.7,200.8 			"/>
			<polygon class="st7" points="1111.4,228.5 1117.1,219.3 1085.6,216.1 1080.8,225.6 			"/>
			<polygon class="st8" points="1048.2,222.3 1075.3,224.8 1078.1,218.7 1051.1,216.1 			"/>
			<path class="st2" d="M1037.3,228.5l-8.9,22.2l55.5,5.1l6.5,3.9c-1.3,0.5-2.4,1.2-3.3,1.9l-27.5-2.1c-1.5-2.8-6.2-4.9-11.9-4.9
				c-6.8,0-12.3,3-12.3,6.8s5.5,6.8,12.3,6.8c5,0,9.2-1.6,11.2-3.9l25.8,2.5c0.7,3.9,6.8,7,14.1,7c7.8,0,14.2-3.5,14.2-7.8
				c0-3.8-5.1-7-11.7-7.7l-2.3-1.4l11.5-20.5l22.8,2l2.6-4.1l-93.1-9.3L1037.3,228.5z M1047.6,264.7c-2.4,0-4.3-1.3-4.3-2.9
				c0-1.6,1.9-2.9,4.3-2.9c2.4,0,4.3,1.3,4.3,2.9C1051.9,263.3,1050,264.7,1047.6,264.7z M1046.6,246.9l-8.3-0.6l1.5-4.4l8.6,0.7
				L1046.6,246.9z M1040.7,240.2l1.5-4.4l8.6,0.7l-1.8,4.3L1040.7,240.2z M1058.6,248l-8.1-0.7l2.1-4.2l8.1,0.6L1058.6,248z
				 M1070.1,249l-7.9-0.5l1.7-4.1l8.4,0.8L1070.1,249z M1082,250.1l-7.9-0.7l2-4.3l7.9,0.8L1082,250.1z M1085.8,250.5l2.2-4.3
				l8.4,0.6l-2.2,4.3L1085.8,250.5z M1101.8,265.7c0,0.1,0,0.1,0,0.2c0.1,0.2,0.1,0.5,0.1,0.7c0,1.6-1.9,2.9-4.3,2.9
				c-2.4,0-4.3-1.3-4.3-2.9c0-0.2,0.1-0.5,0.1-0.7c0-0.1,0-0.1,0-0.2c0-1.3,1.9-2.4,4.2-2.4C1099.9,263.2,1101.8,264.3,1101.8,265.7
				z M1093.3,234.8l9,0.5l-2.2,3.8l-8.8-0.6L1093.3,234.8z M1098.9,240.8l-2.2,4.3l-8.5-0.6l2.2-4.3L1098.9,240.8z M1081.4,233.5
				l8.2,0.5l-2.1,4.1l-8.1-0.6L1081.4,233.5z M1086.6,239.9l-2.1,4.2l-7.9-0.7l2-4.3L1086.6,239.9z M1069.5,232.6l8,0.4l-1.9,4.1
				l-8-0.7L1069.5,232.6z M1074.8,239.1l-2.2,3.9l-7.9-0.5l1.7-4.1L1074.8,239.1z M1057.6,231.1l7.9,0.6l-1.8,4.2l-8.1-0.6
				L1057.6,231.1z M1063.2,237.6l-2.1,4.3l-8.1-0.7l2.1-4.2L1063.2,237.6z M1044.9,230.2l8.5,0.6l-1.6,4.1l-8.7-0.7L1044.9,230.2z"
				/>
			<ellipse class="st9" cx="1047.6" cy="261.7" rx="4.3" ry="2.9"/>
			<path class="st9" d="M1097.6,263.6c-2,0-3.7,1-4.2,2.2c-0.1,0.2-0.1,0.5-0.1,0.7c0,1.6,1.9,2.9,4.3,2.9c2.4,0,4.3-1.3,4.3-2.9
				c0-0.2-0.1-0.5-0.1-0.7C1101.3,264.6,1099.6,263.6,1097.6,263.6z"/>
			<polygon class="st10" points="998.4,221.5 926.3,215.1 924.9,222.3 996.1,228.5 			"/>
			<polygon class="st11" points="993.7,238.2 996,231.2 925.1,224.8 923.7,232 			"/>
			<polygon class="st11" points="992.3,241 923,234.6 921.7,241.8 990.1,248 			"/>
			<polygon class="st12" points="1015.6,223.3 1003,222.3 1000.7,229.3 1013.6,230 			"/>
			<polygon class="st2" points="1012.4,232.8 1000.1,231.5 997.6,238.2 1010.3,239.8 			"/>
			<polygon class="st13" points="1008.9,242.5 996.9,241.3 994.6,248 1006.6,249.2 			"/>
			<polygon class="st6" points="717.2,183.5 687.4,180.8 692.3,197.1 720.7,199.5 			"/>
			<polygon class="st14" points="732.4,201.1 855.9,212.2 856.8,196.3 729.2,184.7 			"/>
			<polygon class="st2" points="695.1,206.6 855.4,221.2 855.4,216.3 693.6,201.7 			"/>
			<polygon class="st2" points="697.7,216.7 855.4,230.5 855.4,226 696.5,211.6 			"/>
			<polygon class="st2" points="700.6,226.9 855.4,240.2 855.4,235.8 699.4,222.1 			"/>
			<polygon class="st2" points="702.1,232.1 703.3,236.6 854.8,249.5 854.7,244.6 			"/>
			<path class="st2" d="M827,168.3c0.6-4.3-5-7.4-12.6-8.4c-7.5-1.1-15.4,0.3-16,4.6c-0.1,0.8,0.1,1.7,0.5,2.5l3,3.3
				c2.6,1.9,6.4,3.3,10.3,3.9c4.7,0.7,9-0.1,11.7-1.7l2.7-2.8C826.8,169.2,827,168.8,827,168.3z"/>
			<path class="st2" d="M780.3,168.4c-5.3-0.8-10.8-0.3-13.8,1.6l-1.9,2c-0.1,0.3-0.3,0.6-0.3,1c-0.6,4.3,6.2,8.6,13.8,9.7
				c7.5,1.1,14.9-1.9,14.8-5.8c0-0.9-0.3-1.7-0.7-2.5l-3-3C787.1,170,784,169,780.3,168.4z"/>
			<path class="st15" d="M766.6,170.1l-16.6-9.7l0,0c-0.8,1-1.6,1.3-1.6,1.3c-0.4,0.3-0.9,0.5-1.3,0.7H747l17.2,10l0.3-0.4
				L766.6,170.1L766.6,170.1z"/>
			<polygon class="st15" points="798.9,167 789.2,171.4 789.2,171.4 792.2,174.4 792.2,174.4 801.9,170.2 801.9,170.2 			"/>
			<path class="st15" d="M837.8,176.8l-11.1-7.3l0,0l-2.7,2.8l0,0l11.7,7.1C835.9,178.4,836.7,177.5,837.8,176.8z"/>
			<polygon class="st16" points="858.4,113.9 823.4,110.2 823.4,126.1 858.4,129.6 			"/>
			<polygon class="st12" points="858.4,150.3 858.4,134.6 825.4,131.2 825.4,147.1 			"/>
			<polygon class="st2" points="750.9,138.1 815.4,144.8 815.4,139.9 750.3,133.3 			"/>
			<polygon class="st2" points="814.4,130.9 672.7,117 674.1,121.9 814.4,135.8 			"/>
			<polygon class="st2" points="747.4,118 814.4,125 814.4,120 747.4,113.5 			"/>
			<polygon class="st2" points="812.4,111.4 666.9,95.9 667.7,100.6 812.4,116.3 			"/>
			<path class="st11" d="M688.2,141.8c-1.8,9.5,11.4,15.9,11.4,15.9l17.5-8.8l-2.9-15.1C692.6,131.2,688.2,141.8,688.2,141.8z"/>
			<path class="st17" d="M750,160.2c2.3-2.4,5.2-7.9-4.1-15.3c0,0-7.9-7.6-25.9-9.5l2.9,14.9l-17.5,9.1c0,0,22.6,13.1,41.8,2.8
				c0.4-0.2,0.9-0.5,1.3-0.7C748.4,161.6,749.1,161.1,750,160.2z"/>
			<path class="st2" d="M851.2,175.3c-5.2-0.7-10.5-0.3-13.4,1.6c-1.1,0.7-1.9,1.6-2.1,2.7c0,0.1-0.1,0.2-0.1,0.3
				c-0.6,4.3,6.1,8.6,13.4,9.6c7.4,1,13.8-1.6,14.4-5.8C864,179.4,858.6,176.3,851.2,175.3z"/>
		</g>
	</g>
</g>
<g>
	
		<image style="overflow:visible;opacity:0.3;enable-background:new    ;" width="102" height="121" xlink:href="A800D26B4E8107B8.png"  transform="matrix(0.9911 0 0 0.9911 1169.2554 362.3951)">
	</image>
	<g>
		<g>
			<path class="st18" d="M1210.3,405l-2.8-10.4c-0.2-0.9,0.4-1.9,1.4-2.5l-3.8-14c-14.8,4.3-23.8,18.6-20.1,32.2
				c0,0.1,0.1,0.3,0.1,0.4c0.1,0.5,0.1,1,0.3,1.5l12.5,45.9c1.6,5.7,7.9,8.8,14.3,7l16.4-4.5l-14.8-54.6
				C1212.1,406.7,1210.6,406.1,1210.3,405z"/>
			<path class="st2" d="M1253.8,443.1l-12.5-45.9c-0.1-0.5-0.3-1-0.5-1.5c0-0.1-0.1-0.3-0.1-0.4c-3.7-13.6-18.7-21.4-33.7-17.6
				l3.8,14c1.2,0,2.2,0.5,2.5,1.4l2.8,10.4c0.3,1.1-0.7,2.4-2.3,2.9l14.8,54.6l16.4-4.5C1251.4,454.7,1255.3,448.8,1253.8,443.1z"/>
			<path class="st19" d="M1209.8,391.7c0.3-0.1,0.7-0.1,1-0.1l-3.8-14l0,0l-1.9,0.5l0,0l3.8,14
				C1209.1,392,1209.4,391.8,1209.8,391.7z"/>
			<path class="st20" d="M1213.7,406.3c1.6-0.4,2.6-1.7,2.3-2.9l-2.8-10.4c-0.2-0.9-1.3-1.4-2.5-1.4c-0.3,0-0.7,0-1,0.1
				L1213.7,406.3z"/>
			<path class="st10" d="M1208.8,392.1c-1,0.6-1.6,1.6-1.4,2.5l2.8,10.4c0.3,1.1,1.9,1.7,3.5,1.3l-3.9-14.5
				C1209.4,391.8,1209.1,392,1208.8,392.1z"/>
		</g>
	</g>
</g>
<g>
	
		<image style="overflow:visible;opacity:0.3;enable-background:new    ;" width="463" height="213" xlink:href="A800D26B4E8107B7.png"  transform="matrix(1 0 0 1 692.0096 373.3564)">
	</image>
	<g>
		<g>
			<path class="st21" d="M1021.3,499.2c0.6,0.3,5.9,3.3,9.4,5.2h2.3l-11-26.1v19.1h-19v-20h18.6l-12.6-30c0,0-0.6-2.4-0.2-5h-5.8
				v-20h19v14.8c1.3,0.9,2,2,2,2l17,40.4l2.1-1.1l-10.1-24.4c0,0-1.1-5.2,5.8-8.1s10.2,2.4,10.2,2.4l2,4.8v-2.8h1.3l-1-2.2
				c0,0-1.4-2.8,0.6-5.8h-0.9v-20h19v20h-2.5c1.2,2.8,5.1,12.3,7.5,18v-5.7l-3.9-9.2c0,0-2.6-5.4,3.9-8.8v-14.3h19v20h-5.6
				c0.9,2.1,2,4.8,3.3,8h2.2v5.4c1.6,3.8,3.3,7.9,5,12v-17.4h19v20H1100c1,2.3,1.9,4.7,2.9,7h15v20h-6.7c1.5,3.7,2.5,6,2.5,6
				s0.1,0.3,0,1h11.2v-117H706v117h303.2c0.1-0.4,0.3-0.9,0.5-1.3C1013.2,494.8,1020.5,498.7,1021.3,499.2z M1099,395.4h19v20h-19
				V395.4z M1099,422.4h19v20h-19V422.4z M1075,395.4h19v20h-19V395.4z M1051,395.4h19v20h-19V395.4z M1003,395.4h19v20h-19V395.4z
				 M835,395.4h19v20h-19V395.4z M835,422.4h19v20h-19V422.4z M835,450.4h19v20h-19V450.4z M811,395.4h19v20h-19V395.4z M811,422.4
				h19v20h-19V422.4z M811,450.4h19v20h-19V450.4z M787,395.4h19v20h-19V395.4z M787,422.4h19v20h-19V422.4z M787,450.4h19v20h-19
				V450.4z M763,395.4h19v20h-19V395.4z M763,422.4h19v20h-19V422.4z M763,450.4h19v20h-19V450.4z M734,496.4h-19v-20h19V496.4z
				 M734,470.4h-19v-20h19V470.4z M734,442.4h-19v-20h19V442.4z M734,415.4h-19v-20h19V415.4z M758,496.4h-19v-20h19V496.4z
				 M758,470.4h-19v-20h19V470.4z M758,442.4h-19v-20h19V442.4z M758,415.4h-19v-20h19V415.4z M878,497.4H763v-20h115V497.4z
				 M878,470.4h-19v-20h19V470.4z M878,442.4h-19v-20h19V442.4z M878,415.4h-19v-20h19V415.4z M902,497.4h-19v-20h19V497.4z
				 M902,470.4h-19v-20h19V470.4z M902,442.4h-19v-20h19V442.4z M902,415.4h-19v-20h19V415.4z M926,497.4h-19v-20h19V497.4z
				 M926,470.4h-19v-20h19V470.4z M926,442.4h-19v-20h19V442.4z M926,415.4h-19v-20h19V415.4z M974,497.4h-19v-20h19V497.4z
				 M974,442.4h-19v-20h19V442.4z M974,415.4h-19v-20h19V415.4z M998,497.4h-19v-20h19V497.4z M998,470.4h-19v-20h19V470.4z
				 M998,442.4h-19v-20h19V442.4z M998,415.4h-19v-20h19V415.4z"/>
			<polygon class="st21" points="1058.8,471.6 1060.9,470.6 1060.8,470.4 1058.2,470.4 			"/>
			<rect x="715" y="395.4" class="st2" width="19" height="20"/>
			<rect x="715" y="450.4" class="st2" width="19" height="20"/>
			<rect x="739" y="450.4" class="st2" width="19" height="20"/>
			<rect x="739" y="395.4" class="st2" width="19" height="20"/>
			<rect x="763" y="395.4" class="st2" width="19" height="20"/>
			<rect x="787" y="395.4" class="st2" width="19" height="20"/>
			<rect x="835" y="395.4" class="st2" width="19" height="20"/>
			<rect x="859" y="395.4" class="st2" width="19" height="20"/>
			<rect x="883" y="395.4" class="st2" width="19" height="20"/>
			<rect x="907" y="395.4" class="st2" width="19" height="20"/>
			<rect x="811" y="395.4" class="st2" width="19" height="20"/>
			<rect x="979" y="395.4" class="st2" width="19" height="20"/>
			<rect x="1003" y="395.4" class="st2" width="19" height="20"/>
			<rect x="955" y="395.4" class="st2" width="19" height="20"/>
			<rect x="979" y="422.4" class="st2" width="19" height="20"/>
			<rect x="979" y="450.4" class="st2" width="19" height="20"/>
			<path class="st2" d="M1003,422.4v20h5.8c0.4-2.3,1.6-4.8,4.9-6c3.9-1.4,6.6-0.4,8.2,0.8v-14.8H1003z"/>
			<rect x="955" y="422.4" class="st2" width="19" height="20"/>
			<rect x="979" y="477.4" class="st2" width="19" height="20"/>
			<polygon class="st2" points="1003,497.4 1022,497.4 1022,478.3 1021.6,477.4 1003,477.4 			"/>
			<rect x="955" y="477.4" class="st2" width="19" height="20"/>
			<rect x="1075" y="395.4" class="st2" width="19" height="20"/>
			<rect x="1099" y="395.4" class="st2" width="19" height="20"/>
			<rect x="1051" y="395.4" class="st2" width="19" height="20"/>
			<path class="st2" d="M1094,422.4h-19v14.3c0.1-0.1,0.3-0.2,0.4-0.2c7.1-3.4,10.6,0.4,11.2,1.8c0.1,0.2,0.7,1.7,1.8,4.2h5.6V422.4
				z"/>
			<rect x="1099" y="422.4" class="st2" width="19" height="20"/>
			<path class="st2" d="M1070,422.4h-19v20h0.9c0.8-1.1,2.1-2.3,4.1-3.3c7.5-3.8,10.5,1.4,11.1,2.6c0.1,0.1,0.2,0.4,0.3,0.8h2.5
				L1070,422.4L1070,422.4z"/>
			<path class="st2" d="M1076.8,464.8l2.1-0.9l-3.9-9.2v5.7C1076.1,463,1076.8,464.8,1076.8,464.8z"/>
			<path class="st2" d="M1091.8,450.4c0.7,1.7,1.4,3.5,2.2,5.4v-5.4H1091.8z"/>
			<path class="st2" d="M1118,450.4h-19v17.4c0.4,0.9,0.7,1.7,1.1,2.6h17.9V450.4z"/>
			<polygon class="st2" points="1051,453.1 1058.2,470.4 1060.8,470.4 1052.3,450.4 1051,450.4 			"/>
			<path class="st2" d="M1118,477.4h-15c3.2,7.8,6.3,15.1,8.3,20h6.7V477.4z"/>
			<rect x="715" y="422.4" class="st2" width="19" height="20"/>
			<rect x="739" y="422.4" class="st2" width="19" height="20"/>
			<rect x="763" y="422.4" class="st2" width="19" height="20"/>
			<rect x="787" y="422.4" class="st2" width="19" height="20"/>
			<rect x="835" y="422.4" class="st2" width="19" height="20"/>
			<rect x="859" y="422.4" class="st2" width="19" height="20"/>
			<rect x="883" y="422.4" class="st2" width="19" height="20"/>
			<rect x="907" y="422.4" class="st2" width="19" height="20"/>
			<rect x="811" y="422.4" class="st2" width="19" height="20"/>
			<rect x="715" y="476.4" class="st2" width="19" height="20"/>
			<rect x="739" y="476.4" class="st2" width="19" height="20"/>
			<rect x="763" y="450.4" class="st2" width="19" height="20"/>
			<rect x="787" y="450.4" class="st2" width="19" height="20"/>
			<rect x="835" y="450.4" class="st2" width="19" height="20"/>
			<rect x="859" y="450.4" class="st2" width="19" height="20"/>
			<rect x="883" y="450.4" class="st2" width="19" height="20"/>
			<rect x="907" y="450.4" class="st2" width="19" height="20"/>
			<rect x="883" y="477.4" class="st2" width="19" height="20"/>
			<rect x="907" y="477.4" class="st2" width="19" height="20"/>
			<rect x="811" y="450.4" class="st2" width="19" height="20"/>
			<rect x="763" y="477.4" class="st2" width="115" height="20"/>
			<path class="st22" d="M1058.3,541.2l52.2-21.8l-2-6c4.2-4.9,5.1-7.7,5.3-9c0.1-0.7,0-1,0-1s-0.9-2.3-2.5-6c-2-4.9-5-12.2-8.3-20
				c-1-2.3-1.9-4.7-2.9-7c-0.4-0.9-0.7-1.7-1.1-2.6c-1.7-4.2-3.4-8.3-5-12c-0.8-1.9-1.5-3.7-2.2-5.4c-1.3-3.2-2.5-5.9-3.3-8
				c-1-2.5-1.7-4-1.8-4.2c-0.6-1.4-4.2-5.1-11.2-1.8c-0.2,0.1-0.3,0.1-0.4,0.2c-6.5,3.4-3.9,8.8-3.9,8.8l3.9,9.2l3.9,9.2l-2.1,0.9
				c0,0-0.7-1.8-1.8-4.4c-2.3-5.7-6.3-15.2-7.5-18c-0.2-0.4-0.3-0.6-0.3-0.8c-0.6-1.2-3.6-6.3-11.1-2.6c-2.1,1-3.4,2.2-4.1,3.3
				c-2.1,3-0.6,5.8-0.6,5.8l1,2.2l8.6,20l0.1,0.2l-2.2,1l-0.5-1.2l-7.2-17.3l-2-4.8c0,0-3.4-5.2-10.2-2.4s-5.8,8.1-5.8,8.1
				l10.1,24.4l-2.1,1.1l-17-40.4c0,0-0.7-1-2-2c-1.7-1.2-4.4-2.1-8.2-0.8c-3.3,1.2-4.5,3.7-4.9,6c-0.4,2.6,0.2,5,0.2,5l12.6,30
				l0.4,0.9l11,26.1l0.7,1.7c0,0-1.3-0.7-3-1.7c-3.5-2-8.8-5-9.4-5.2c-0.8-0.4-8.2-4.3-11.7,3.9c-0.2,0.5-0.4,0.9-0.5,1.3
				c-2.3,7.2,3,9.3,3,9.3s27.6,16.3,29.7,17.6s2.8,0.9,2.8,0.9c1.4,2.6,11,3.5,11,3.5L1058.3,541.2z"/>
			<polygon class="st2" points="1114.4,517.8 1054.7,543 1058.8,552.6 1118.5,527.5 			"/>
			<polygon class="st6" points="1120.4,526.7 1118.5,527.5 1058.8,552.6 1056.5,553.6 1063.7,570.4 1138.9,570.4 			"/>
		</g>
	</g>
</g>
<g>
	
		<image style="overflow:visible;opacity:0.3;enable-background:new    ;" width="282" height="200" xlink:href="A800D26B4E8107C6.png"  transform="matrix(0.996 0 0 0.996 1254.1431 156.2029)">
	</image>
	<g>
		<g>
			<path class="st23" d="M1514.1,325.7c0,4.2-3.4,7.5-7.5,7.5l-215.9,0.2c-4.2,0-7.5-3.4-7.5-7.5l-0.1-125.9c0-4.2,3.4-7.5,7.5-7.5
				l215.9-0.2c4.2,0,7.5,3.4,7.5,7.5L1514.1,325.7z"/>
			<rect x="1303.1" y="198.3" class="st24" width="96" height="118"/>
			<rect x="1399.1" y="198.3" class="st24" width="96" height="118"/>
			<rect x="1356" y="209.3" class="st25" width="34" height="6"/>
			<rect x="1356" y="220.3" class="st25" width="34" height="6"/>
			<rect x="1356" y="232.3" class="st25" width="33" height="5"/>
			<rect x="1311.1" y="294.4" class="st25" width="34" height="5"/>
			<rect x="1311.1" y="249.3" class="st25" width="79" height="6"/>
			<rect x="1311.1" y="260.3" class="st25" width="79" height="6"/>
			<rect x="1311.1" y="272.3" class="st25" width="79" height="5"/>
			<rect x="1311.1" y="283.3" class="st25" width="79" height="6"/>
			<rect x="1399" y="212.3" class="st25" width="79" height="5"/>
			<rect x="1399" y="223.3" class="st25" width="79" height="5"/>
			<rect x="1399" y="234.3" class="st25" width="79" height="6"/>
			<rect x="1399" y="245.3" class="st25" width="79" height="6"/>
			<rect x="1399.1" y="255.3" class="st25" width="79" height="5"/>
			<rect x="1399.1" y="266.3" class="st25" width="79" height="6"/>
			<rect x="1399.1" y="277.3" class="st25" width="79" height="6"/>
			<rect x="1399.1" y="289.3" class="st25" width="79" height="5"/>
			<text transform="matrix(1 -8.400000e-04 8.400000e-04 1 1322.6486 236.9186)" class="st15 st26 st27">A</text>
			<polygon class="st23" points="1391,198.3 1391,220 1394.1,214.4 1397,220 1397,198.3 			"/>
			<path class="st28" d="M1515,223.3l0.1,102.5c0,4.2-3.5,7.3-7.7,7.3h-30.5l-77.9-17l-0.1-118.5L1515,223.3z"/>
			<polygon class="st24" points="1399.1,316.3 1472.1,290.5 1472,172 1399,197.7 			"/>
		</g>
	</g>
</g>
<g>
	
		<image style="overflow:visible;opacity:0.3;enable-background:new    ;" width="127" height="145" xlink:href="A800D26B4E8107C9.png"  transform="matrix(1 0 0 1 509.4825 354.4857)">
	</image>
	<g>
		<g>
			<g>
				<path class="st29" d="M619.2,454c0.7,1.2,0.3,2.7-0.9,3.4l-43.1,24.5c-1.2,0.7-2.7,0.3-3.4-0.9l-46.9-82.8
					c-0.7-1.2-0.3-2.7,0.9-3.4l43.1-24.5c1.2-0.7,2.7-0.3,3.4,0.9L619.2,454z"/>
				<path class="st30" d="M616.6,452.1c0.6,1.1,0.2,2.6-0.9,3.2l-40.4,22.9c-1.1,0.6-2.6,0.2-3.2-0.9l-43.9-77.4
					c-0.6-1.1-0.2-2.6,0.9-3.2l40.4-22.9c1.1-0.6,2.6-0.2,3.2,0.9L616.6,452.1z"/>
				<g>
					
						<rect x="589.3" y="460.5" transform="matrix(0.8701 -0.4929 0.4929 0.8701 -150.8803 350.972)" class="st10" width="2.1" height="2.4"/>
					
						<rect x="591.7" y="459.1" transform="matrix(0.8701 -0.4929 0.4929 0.8701 -149.8859 351.9869)" class="st10" width="2.1" height="2.4"/>
					
						<rect x="593.1" y="461.6" transform="matrix(0.8701 -0.4929 0.4929 0.8701 -150.9094 352.9595)" class="st10" width="2.1" height="2.4"/>
					
						<rect x="590.7" y="462.8" transform="matrix(0.8699 -0.4932 0.4932 0.8699 -151.8438 352.2274)" class="st10" width="2.1" height="2.4"/>
				</g>
				
					<rect x="549.3" y="388.7" transform="matrix(0.87 -0.4931 0.4931 0.87 -135.7782 337.4209)" class="st31" width="45.3" height="75"/>
			</g>
			
				<linearGradient id="SVGID_1_" gradientUnits="userSpaceOnUse" x1="790.1685" y1="-501.698" x2="805.033" y2="-501.698" gradientTransform="matrix(0.87 -0.493 0.493 0.87 104.5081 1218.8025)">
				<stop  offset="0" style="stop-color:#FFFFFF"/>
				<stop  offset="1" style="stop-color:#000000"/>
			</linearGradient>
			<path class="st32" d="M557.6,385.6c0.2,0.3,0,0.6-0.3,0.8l-11.8,6.7c-0.3,0.2-0.7,0.2-0.9-0.2l0,0c-0.2-0.3-0.1-0.8,0.2-1
				l11.8-6.7C557,385,557.4,385.2,557.6,385.6L557.6,385.6z"/>
		</g>
	</g>
</g>
<g>
	<g>
		<path class="st33" d="M532.7,321.3c0,5.5-4.5,10-10,10l-120.5-0.1c-5.5,0-10-4.5-10-10l0.1-182.5c0-5.5,4.5-10,10-10l120.5,0.1
			c5.5,0,10,4.5,10,10L532.7,321.3z"/>
		<rect x="401.2" y="150.7" class="st34" width="123.8" height="159.9"/>
		<rect x="460.6" y="155.9" class="st12" width="56.7" height="6.4"/>
		<rect x="406.4" y="168.8" class="st35" width="110.9" height="16.8"/>
		<rect x="406.4" y="192" class="st36" width="112.2" height="50.3"/>
		<rect x="406.4" y="270.6" class="st37" width="49" height="32.2"/>
		<rect x="468.3" y="270.7" class="st37" width="49" height="32.2"/>
		<rect x="414.1" y="250" class="st37" width="95.4" height="3.9"/>
		<rect x="427" y="257.8" class="st37" width="69.6" height="3.9"/>
		<circle class="st20" cx="462.3" cy="319.2" r="6.3"/>
	</g>
</g>
<rect x="1343.8" y="320.8" transform="matrix(-0.9995 3.301921e-02 -3.301921e-02 -0.9995 2771.1589 754.5735)" class="st38" width="71" height="158.7"/>
<text transform="matrix(0.9982 -5.951944e-02 5.951944e-02 0.9982 1399.6421 218.6571)" class="st39 st40">Node JS</text>
<text transform="matrix(0.9982 -5.951944e-02 5.951944e-02 0.9982 1400.9983 233.0019)" class="st39 st40">Angular</text>
<text transform="matrix(0.9982 -5.951944e-02 5.951944e-02 0.9982 1402.3545 247.3465)" class="st39 st40">Mongo</text>
<text transform="matrix(0.9982 -5.951944e-02 5.951944e-02 0.9982 1403.611 261.6972)" class="st39 st40">jQuery</text>
<text transform="matrix(0.9982 -5.951944e-02 5.951944e-02 0.9982 1404.967 276.042)" class="st39 st40">REST API</text>
<rect x="687.3" y="317" class="st38" width="76" height="42.3"/>
<text transform="matrix(1 0 0 1 461.8327 443.5001)" class="st39 st40">Responsive</text>
<text transform="matrix(1 0 0 1 461.8327 457.9001)" class="st39 st40">Design</text>
</svg>
